<?xml version="1.0" encoding="UTF-8"?>
<!DOCTYPE svg PUBLIC "-//W3C//DTD SVG 1.1//EN" "http://www.w3.org/Graphics/SVG/1.1/DTD/svg11.dtd">
<!-- Creator: CorelDRAW 2020 -->
<svg xmlns="http://www.w3.org/2000/svg" xml:space="preserve" width="131mm" height="96mm" version="1.1" style="shape-rendering:geometricPrecision; text-rendering:geometricPrecision; image-rendering:optimizeQuality; fill-rule:evenodd; clip-rule:evenodd"
viewBox="0 0 13100 9600"
 xmlns:xlink="http://www.w3.org/1999/xlink"
 xmlns:xodm="http://www.corel.com/coreldraw/odm/2003">
 <defs>
  <style type="text/css">
   <![CDATA[
    .fil1 {fill:none}
    .fil0 {fill:#A9ABAE}
   ]]>
  </style>
 </defs>
 <g id="Capa_x0020_1">
  <metadata id="CorelCorpID_0Corel-Layer"/>
  <rect class="fil0" x="535.49" y="7851.02" width="1680.1" height="944.94" rx="112.75" ry="133.66"/>
  <path class="fil0" d="M1067.16 8795.96l616.75 0 0 270.62c0,44.11 -36.08,80.19 -80.19,80.19l-456.37 0c-44.11,0 -80.19,-36.08 -80.19,-80.19l0 -270.62z"/>
  <rect class="fil0" x="2383.03" y="7851.02" width="1680.1" height="944.94" rx="112.75" ry="133.66"/>
  <path class="fil0" d="M2914.7 8795.96l616.75 0 0 270.62c0,44.11 -36.08,80.19 -80.19,80.19l-456.37 0c-44.11,0 -80.19,-36.08 -80.19,-80.19l0 -270.62z"/>
  <rect class="fil0" x="4960.36" y="7851.02" width="1680.1" height="944.94" rx="112.75" ry="133.66"/>
  <path class="fil0" d="M5492.04 8795.96l616.75 0 0 270.62c0,44.11 -36.08,80.19 -80.19,80.19l-456.37 0c-44.11,0 -80.19,-36.08 -80.19,-80.19l0 -270.62z"/>
  <rect class="fil0" x="6807.9" y="7851.02" width="1680.1" height="944.94" rx="112.75" ry="133.66"/>
  <path class="fil0" d="M7339.58 8795.96l616.75 0 0 270.62c0,44.11 -36.08,80.19 -80.19,80.19l-456.37 0c-44.11,0 -80.19,-36.08 -80.19,-80.19l0 -270.62z"/>
  <rect class="fil0" x="9089.88" y="7851.02" width="1680.1" height="944.94" rx="112.75" ry="133.66"/>
  <path class="fil0" d="M9621.55 8795.96l616.75 0 0 270.62c0,44.11 -36.08,80.19 -80.19,80.19l-456.36 0c-44.12,0 -80.2,-36.08 -80.2,-80.19l0 -270.62z"/>
  <rect class="fil0" x="535.49" y="6783.28" width="1680.1" height="944.94" rx="112.75" ry="133.66"/>
  <path class="fil0" d="M1067.16 6783.28l616.75 0 0 -270.62c0,-44.12 -36.08,-80.2 -80.19,-80.2l-456.37 0c-44.11,0 -80.19,36.08 -80.19,80.2l0 270.62z"/>
  <rect class="fil0" x="2383.03" y="6783.28" width="1680.1" height="944.94" rx="112.75" ry="133.66"/>
  <path class="fil0" d="M2914.7 6783.28l616.75 0 0 -270.62c0,-44.12 -36.08,-80.2 -80.19,-80.2l-456.37 0c-44.11,0 -80.19,36.08 -80.19,80.2l0 270.62z"/>
  <rect class="fil0" x="4960.36" y="6783.28" width="1680.1" height="944.94" rx="112.75" ry="133.66"/>
  <path class="fil0" d="M5492.04 6783.28l616.75 0 0 -270.62c0,-44.12 -36.08,-80.2 -80.19,-80.2l-456.37 0c-44.11,0 -80.19,36.08 -80.19,80.2l0 270.62z"/>
  <rect class="fil0" x="6807.9" y="6783.28" width="1680.1" height="944.94" rx="112.75" ry="133.66"/>
  <path class="fil0" d="M7339.58 6783.28l616.75 0 0 -270.62c0,-44.12 -36.08,-80.2 -80.19,-80.2l-456.37 0c-44.11,0 -80.19,36.08 -80.19,80.2l0 270.62z"/>
  <rect class="fil0" x="9089.88" y="6783.28" width="1680.1" height="944.94" rx="112.75" ry="133.66"/>
  <path class="fil0" d="M9621.55 6783.28l616.75 0 0 -270.62c0,-44.12 -36.08,-80.2 -80.19,-80.2l-456.36 0c-44.12,0 -80.2,36.08 -80.2,80.2l0 270.62z"/>
  <path class="fil0" d="M575.91 4324.42l3446.8 0c166.22,0 302.23,-136 302.23,-302.23l0 -3471.69c0,-166.23 -136.01,-302.23 -302.23,-302.23l-3446.8 0c-166.23,0 -302.23,136 -302.23,302.23l0 3471.69c0,166.23 136,302.23 302.23,302.23zm295.57 -1928.02l0 -26.75 34.66 -5.95 0 -243.71 -34.66 -5.94 0 -26.98 34.66 0 55.83 0 99.63 234.79 1.31 0 96.43 -234.79 93.25 0 0 26.98 -34.58 5.94 0 243.71 34.58 5.95 0 26.75 -111.08 0 0 -26.75 36.54 -5.95 0 -89.69 0 -129.8 -1.09 -0.14 -100.42 241.31 -27.84 0 -103.91 -240.95 -1.02 0.21 1.45 129.37 0 89.69 37.42 5.95 0 26.75 -111.16 0zm521.57 4.5c-21.25,-0.07 -39.73,-4.86 -55.47,-14.57 -15.66,-9.72 -27.84,-23.21 -36.4,-40.47 -8.55,-17.33 -12.83,-37.26 -12.83,-59.89l0 -9.35c0,-21.83 4.49,-41.34 13.49,-58.52 8.98,-17.26 20.95,-30.82 35.88,-40.83 14.94,-10 31.25,-15.01 48.95,-15.01 20.67,0 38,4.29 51.99,12.77 13.92,8.48 24.44,20.45 31.54,35.82 7.03,15.37 10.59,33.43 10.59,54.23l0 26.19 -149.08 0 -0.66 1c0.3,14.8 2.83,27.85 7.76,39.23 4.87,11.39 11.9,20.39 21.11,26.91 9.2,6.45 20.23,9.72 33.13,9.72 14.15,0 26.62,-1.96 37.28,-6.02 10.73,-4.06 19.93,-9.65 27.76,-16.68l16.32 27.19c-8.2,7.91 -19.07,14.65 -32.63,20.09 -13.49,5.44 -29.73,8.12 -48.73,8.19zm-60.11 -142.33l106.01 0 0 -5.6c0,-11.02 -1.95,-20.88 -5.87,-29.57 -3.84,-8.71 -9.64,-15.6 -17.4,-20.6 -7.69,-5.07 -17.41,-7.54 -29.01,-7.54 -9.35,0 -17.84,2.68 -25.45,8.12 -7.69,5.51 -14,12.9 -18.92,22.19 -4.94,9.35 -8.2,20.01 -9.8,31.91l0.44 1.09zm291.42 142.33c-21.24,-0.07 -39.73,-4.86 -55.47,-14.57 -15.66,-9.72 -27.84,-23.21 -36.4,-40.47 -8.55,-17.33 -12.83,-37.26 -12.83,-59.89l0 -9.35c0,-21.83 4.49,-41.34 13.49,-58.52 8.98,-17.26 20.95,-30.82 35.88,-40.83 14.94,-10 31.25,-15.01 48.96,-15.01 20.66,0 37.99,4.29 51.98,12.77 13.92,8.48 24.44,20.45 31.54,35.82 7.03,15.37 10.59,33.43 10.59,54.23l0 26.19 -149.08 0 -0.66 1c0.3,14.8 2.83,27.85 7.76,39.23 4.87,11.39 11.9,20.39 21.11,26.91 9.21,6.45 20.23,9.72 33.13,9.72 14.15,0 26.62,-1.96 37.28,-6.02 10.73,-4.06 19.94,-9.65 27.76,-16.68l16.32 27.19c-8.2,7.91 -19.07,14.65 -32.63,20.09 -13.49,5.44 -29.73,8.12 -48.73,8.19zm-60.11 -142.33l106.01 0 0 -5.6c0,-11.02 -1.95,-20.88 -5.87,-29.57 -3.84,-8.71 -9.64,-15.6 -17.4,-20.6 -7.69,-5.07 -17.41,-7.54 -29,-7.54 -9.36,0 -17.85,2.68 -25.46,8.12 -7.69,5.51 -14,12.9 -18.92,22.19 -4.94,9.35 -8.2,20.01 -9.8,31.91l0.44 1.09zm261.55 141.46c-16.96,0 -30.45,-5.01 -40.46,-15.01 -10.01,-9.93 -15.01,-25.96 -15.01,-47.85l0 -139.6 -36.33 0 0 -31.02 36.33 0 0 -55.48 41.84 0 0 55.48 49.96 0 0 31.02 -49.96 0 0 139.6c0,11.02 2.25,19.14 6.6,24.43 4.42,5.22 10.3,7.84 17.62,7.84 5,0 10.51,-0.45 16.6,-1.39 6.1,-0.94 10.8,-1.74 14.22,-2.46l5.72 27.41c-6.08,1.81 -13.56,3.48 -22.41,4.86 -8.84,1.45 -17.1,2.17 -24.72,2.17zm72.44 -3.63l0 -26.75 34.65 -5.95 0 -164.23 -34.65 -5.96 0 -26.96 76.49 0 0 197.15 34.66 5.95 0 26.75 -111.15 0zm32.55 -286.56l0 -44.82 44.01 0 0 44.82 -44.01 0zm107.46 286.56l0 -26.75 34.59 -5.95 0 -164.23 -34.59 -5.96 0 -26.96 72 0 2.98 34.22c7.61,-12.18 17.25,-21.68 28.78,-28.35 11.54,-6.74 24.66,-10.16 39.38,-10.16 24.79,0 44.02,7.33 57.58,21.83 13.63,14.5 20.44,36.91 20.44,67.22l0 112.39 34.58 5.95 0 26.75 -111.08 0 0 -26.75 34.66 -5.95 0 -111.52c0,-20.3 -4.06,-34.66 -12.04,-43.14 -7.97,-8.48 -20.23,-12.77 -36.61,-12.77 -12.04,0 -22.7,2.91 -31.98,8.71 -9.29,5.79 -16.68,13.77 -22.19,23.78l0 134.94 34.58 5.95 0 26.75 -111.08 0zm384.02 92.82c-11.02,0 -22.99,-1.52 -35.89,-4.57 -12.84,-3.05 -24.22,-7.18 -33.94,-12.39l10.81 -32.49c7.75,4.06 16.96,7.46 27.62,10.15 10.59,2.68 20.95,4.06 31.04,4.06 18.63,0 32.34,-5.22 41.03,-15.74 8.78,-10.43 13.13,-25.37 13.13,-44.81l0 -21.9c-7.54,9.65 -16.53,16.97 -26.97,21.9 -10.52,4.93 -22.56,7.4 -36.19,7.47 -18.64,-0.07 -34.8,-4.64 -48.36,-13.93 -13.64,-9.27 -24.07,-22.25 -31.4,-38.93 -7.25,-16.61 -10.88,-35.89 -10.88,-57.86l0 -4.42c0,-24.67 3.63,-46.27 10.88,-64.83 7.33,-18.57 17.76,-33 31.4,-43.22 13.56,-10.3 29.88,-15.45 48.8,-15.45 14.5,0 27.12,2.83 38.07,8.57 10.88,5.65 20.01,13.84 27.41,24.58l3.77 -28.86 35.31 0 0 226.88c0,19.8 -3.7,36.91 -11.16,51.19 -7.48,14.29 -18.28,25.31 -32.49,33.07 -14.29,7.68 -31.55,11.53 -51.99,11.53zm1.09 -122.32c12.61,0 23.13,-2.91 31.68,-8.64 8.49,-5.72 15.45,-13.85 21.03,-24.29l0 -105.79c-5.44,-9.79 -12.4,-17.55 -21.03,-23.28 -8.7,-5.72 -19.07,-8.63 -31.25,-8.63 -13.35,0 -24.37,3.84 -33.28,11.46 -8.85,7.69 -15.45,18.2 -19.87,31.54 -4.35,13.42 -6.53,28.87 -6.53,46.49l0 4.42c0,23.13 4.86,41.62 14.65,55.68 9.79,13.99 24.65,21.04 44.6,21.04zm88.17 -166.13l-16.39 -34.22 51.2 0 0 26.75 -34.81 7.47zm165.25 195.63l0 -26.75 34.66 -5.95 0 -243.71 -34.66 -5.94 0 -26.76 137.91 0c22.49,0 41.48,3.4 57.01,10.08 15.51,6.74 27.33,16.54 35.38,29.22 8.05,12.76 12.11,28.35 12.11,46.77 0,18.13 -3.92,33.35 -11.75,45.68 -7.9,12.32 -19.07,21.61 -33.5,27.92 -14.42,6.31 -31.54,9.64 -51.41,10.07l-69.25 1.31 0 105.36 34.67 5.95 0 26.75 -111.17 0zm204.19 0l-68.81 -154.45 41.83 -0.43 57.15 123.63 21.47 3.84 0 27.41 -51.64 0zm-127.69 -170.98l57.14 0c23.34,0 40.39,-4.49 50.98,-13.41 10.66,-8.92 15.95,-21.97 15.95,-39.09 0,-16.31 -5.08,-29.14 -15.31,-38.64 -10.21,-9.5 -25.95,-14.29 -47.35,-14.29l-61.41 0 0 105.43zm320.14 175.48c-21.25,-0.07 -39.53,-5 -54.9,-15.01 -15.37,-10.01 -27.19,-23.78 -35.6,-41.4 -8.34,-17.62 -12.47,-37.78 -12.47,-60.48l0 -4.64c0,-22.7 4.13,-42.85 12.47,-60.47 8.41,-17.62 20.23,-31.47 35.6,-41.56 15.37,-10 33.5,-15.08 54.53,-15.08 21.25,0 39.52,5.08 54.89,15.08 15.37,10.09 27.19,23.94 35.6,41.48 8.34,17.55 12.55,37.71 12.55,60.55l0 4.64c0,22.84 -4.21,43 -12.55,60.69 -8.41,17.62 -20.23,31.4 -35.53,41.27 -15.29,9.93 -33.5,14.86 -54.59,14.93zm0 -32.77c13.34,0 24.5,-3.63 33.49,-10.96 8.99,-7.25 15.81,-17.25 20.37,-29.94 4.65,-12.62 6.9,-27.05 6.9,-43.22l0 -4.64c0,-16.17 -2.25,-30.6 -6.9,-43.21 -4.56,-12.69 -11.45,-22.7 -20.51,-30.02 -9.06,-7.26 -20.31,-10.88 -33.72,-10.88 -13.34,0 -24.51,3.62 -33.57,10.88 -9.06,7.32 -15.88,17.33 -20.45,30.02 -4.5,12.61 -6.75,27.04 -6.75,43.21l0 4.64c0,16.17 2.25,30.6 6.75,43.22 4.57,12.69 11.39,22.69 20.52,29.94 9.13,7.33 20.45,10.96 33.87,10.96zm246.25 32.77c-21.25,-0.07 -39.52,-5 -54.9,-15.01 -15.37,-10.01 -27.19,-23.78 -35.6,-41.4 -8.34,-17.62 -12.47,-37.78 -12.47,-60.48l0 -4.64c0,-22.7 4.13,-42.85 12.47,-60.47 8.41,-17.62 20.23,-31.47 35.6,-41.56 15.38,-10 33.5,-15.08 54.53,-15.08 21.25,0 39.52,5.08 54.89,15.08 15.37,10.09 27.19,23.94 35.6,41.48 8.35,17.55 12.55,37.71 12.55,60.55l0 4.64c0,22.84 -4.2,43 -12.55,60.69 -8.41,17.62 -20.23,31.4 -35.53,41.27 -15.29,9.93 -33.5,14.86 -54.59,14.93zm0 -32.77c13.34,0 24.5,-3.63 33.5,-10.96 8.98,-7.25 15.8,-17.25 20.37,-29.94 4.64,-12.62 6.89,-27.05 6.89,-43.22l0 -4.64c0,-16.17 -2.25,-30.6 -6.89,-43.21 -4.57,-12.69 -11.46,-22.7 -20.52,-30.02 -9.06,-7.26 -20.31,-10.88 -33.72,-10.88 -13.34,0 -24.51,3.62 -33.57,10.88 -9.06,7.32 -15.88,17.33 -20.44,30.02 -4.51,12.61 -6.75,27.04 -6.75,43.21l0 4.64c0,16.17 2.24,30.6 6.75,43.22 4.56,12.69 11.38,22.69 20.51,29.94 9.13,7.33 20.45,10.96 33.87,10.96zm134.94 28.27l0 -26.75 34.58 -5.95 0 -164.23 -34.58 -5.96 0 -26.96 72.22 0 2.75 29.94c7.39,-10.87 16.82,-19.29 28.5,-25.3 11.6,-5.95 25.02,-8.93 40.32,-8.93 15.29,0 28.42,3.56 39.44,10.66 10.95,7.11 19.21,17.69 24.72,31.84 7.26,-12.98 16.76,-23.36 28.64,-30.96 11.97,-7.69 25.83,-11.54 41.7,-11.54 23.5,0 42.05,8.05 55.61,24.15 13.63,16.1 20.46,40.25 20.46,72.52l0 104.77 34.58 5.95 0 26.75 -111.3 0 0 -26.75 34.58 -5.95 0 -105.13c0,-22.7 -3.83,-38.73 -11.67,-48.16 -7.76,-9.42 -19.29,-14.14 -34.59,-14.14 -14.57,0 -26.31,5.15 -35.16,15.45 -8.85,10.22 -14,23.13 -15.37,38.72l0 113.26 34.58 5.95 0 26.75 -111.09 0 0 -26.75 34.59 -5.95 0 -105.13c0,-21.54 -3.98,-37.35 -11.96,-47.28 -7.98,-10.01 -19.58,-15.02 -34.74,-15.02 -12.75,0 -23.27,2.61 -31.46,7.9 -8.2,5.23 -14.51,12.56 -18.86,22.05l0 137.48 34.59 5.95 0 26.75 -111.08 0zm-1163.41 587.21l0 -26.76 47.86 -5.95 0 -231.74 -48.65 0.8 0 -26.11 90.49 -19.58 0 276.63 47.57 5.95 0 26.76 -137.27 0z"/>
  <path class="fil0" d="M4819.46 4324.42l3446.8 0c166.23,0 302.23,-136 302.23,-302.23l0 -3471.69c0,-166.23 -136,-302.23 -302.23,-302.23l-3446.8 0c-166.23,0 -302.23,136 -302.23,302.23l0 3471.69c0,166.23 136,302.23 302.23,302.23zm300.11 -1928.02l0 -26.75 34.66 -5.95 0 -243.71 -34.66 -5.94 0 -26.98 34.66 0 55.84 0 99.62 234.79 1.31 0 96.43 -234.79 93.25 0 0 26.98 -34.58 5.94 0 243.71 34.58 5.95 0 26.75 -111.08 0 0 -26.75 36.54 -5.95 0 -89.69 0 -129.8 -1.09 -0.14 -100.42 241.31 -27.84 0 -103.91 -240.95 -1.02 0.21 1.45 129.37 0 89.69 37.42 5.95 0 26.75 -111.16 0zm521.57 4.5c-21.24,-0.07 -39.73,-4.86 -55.47,-14.57 -15.66,-9.72 -27.84,-23.21 -36.4,-40.47 -8.55,-17.33 -12.83,-37.26 -12.83,-59.89l0 -9.35c0,-21.83 4.49,-41.34 13.49,-58.52 8.98,-17.26 20.95,-30.82 35.88,-40.83 14.94,-10 31.25,-15.01 48.96,-15.01 20.66,0 37.99,4.29 51.98,12.77 13.92,8.48 24.44,20.45 31.54,35.82 7.04,15.37 10.59,33.43 10.59,54.23l0 26.19 -149.08 0 -0.66 1c0.3,14.8 2.84,27.85 7.76,39.23 4.87,11.39 11.9,20.39 21.11,26.91 9.21,6.45 20.23,9.72 33.13,9.72 14.15,0 26.62,-1.96 37.28,-6.02 10.73,-4.06 19.94,-9.65 27.76,-16.68l16.32 27.19c-8.2,7.91 -19.07,14.65 -32.63,20.09 -13.49,5.44 -29.73,8.12 -48.73,8.19zm-60.11 -142.33l106.01 0 0 -5.6c0,-11.02 -1.95,-20.88 -5.87,-29.57 -3.84,-8.71 -9.64,-15.6 -17.4,-20.6 -7.69,-5.07 -17.41,-7.54 -29,-7.54 -9.36,0 -17.85,2.68 -25.46,8.12 -7.69,5.51 -14,12.9 -18.92,22.19 -4.94,9.35 -8.2,20.01 -9.8,31.91l0.44 1.09zm291.42 142.33c-21.24,-0.07 -39.73,-4.86 -55.47,-14.57 -15.66,-9.72 -27.84,-23.21 -36.4,-40.47 -8.55,-17.33 -12.83,-37.26 -12.83,-59.89l0 -9.35c0,-21.83 4.49,-41.34 13.49,-58.52 8.98,-17.26 20.95,-30.82 35.88,-40.83 14.94,-10 31.25,-15.01 48.96,-15.01 20.66,0 37.99,4.29 51.98,12.77 13.92,8.48 24.44,20.45 31.54,35.82 7.04,15.37 10.59,33.43 10.59,54.23l0 26.19 -149.08 0 -0.66 1c0.3,14.8 2.84,27.85 7.76,39.23 4.87,11.39 11.9,20.39 21.11,26.91 9.21,6.45 20.23,9.72 33.13,9.72 14.15,0 26.62,-1.96 37.28,-6.02 10.73,-4.06 19.94,-9.65 27.76,-16.68l16.32 27.19c-8.2,7.91 -19.07,14.65 -32.63,20.09 -13.49,5.44 -29.73,8.12 -48.73,8.19zm-60.11 -142.33l106.01 0 0 -5.6c0,-11.02 -1.95,-20.88 -5.87,-29.57 -3.84,-8.71 -9.64,-15.6 -17.4,-20.6 -7.69,-5.07 -17.41,-7.54 -29,-7.54 -9.36,0 -17.85,2.68 -25.46,8.12 -7.69,5.51 -14,12.9 -18.92,22.19 -4.94,9.35 -8.2,20.01 -9.79,31.91l0.43 1.09zm261.55 141.46c-16.96,0 -30.45,-5.01 -40.46,-15.01 -10.01,-9.93 -15.01,-25.96 -15.01,-47.85l0 -139.6 -36.33 0 0 -31.02 36.33 0 0 -55.48 41.84 0 0 55.48 49.96 0 0 31.02 -49.96 0 0 139.6c0,11.02 2.25,19.14 6.6,24.43 4.42,5.22 10.3,7.84 17.62,7.84 5,0 10.51,-0.45 16.6,-1.39 6.1,-0.94 10.8,-1.74 14.22,-2.46l5.72 27.41c-6.08,1.81 -13.56,3.48 -22.4,4.86 -8.85,1.45 -17.11,2.17 -24.73,2.17zm72.44 -3.63l0 -26.75 34.65 -5.95 0 -164.23 -34.65 -5.96 0 -26.96 76.49 0 0 197.15 34.66 5.95 0 26.75 -111.15 0zm32.55 -286.56l0 -44.82 44.01 0 0 44.82 -44.01 0zm107.46 286.56l0 -26.75 34.59 -5.95 0 -164.23 -34.59 -5.96 0 -26.96 72.01 0 2.97 34.22c7.61,-12.18 17.26,-21.68 28.78,-28.35 11.54,-6.74 24.66,-10.16 39.38,-10.16 24.79,0 44.02,7.33 57.58,21.83 13.63,14.5 20.44,36.91 20.44,67.22l0 112.39 34.58 5.95 0 26.75 -111.08 0 0 -26.75 34.66 -5.95 0 -111.52c0,-20.3 -4.06,-34.66 -12.04,-43.14 -7.97,-8.48 -20.23,-12.77 -36.61,-12.77 -12.04,0 -22.7,2.91 -31.98,8.71 -9.29,5.79 -16.68,13.77 -22.19,23.78l0 134.94 34.58 5.95 0 26.75 -111.08 0zm384.02 92.82c-11.02,0 -22.99,-1.52 -35.89,-4.57 -12.84,-3.05 -24.22,-7.18 -33.94,-12.39l10.81 -32.49c7.75,4.06 16.96,7.46 27.62,10.15 10.59,2.68 20.96,4.06 31.04,4.06 18.63,0 32.34,-5.22 41.03,-15.74 8.78,-10.43 13.13,-25.37 13.13,-44.81l0 -21.9c-7.54,9.65 -16.53,16.97 -26.97,21.9 -10.52,4.93 -22.56,7.4 -36.19,7.47 -18.63,-0.07 -34.8,-4.64 -48.36,-13.93 -13.63,-9.27 -24.07,-22.25 -31.4,-38.93 -7.25,-16.61 -10.88,-35.89 -10.88,-57.86l0 -4.42c0,-24.67 3.63,-46.27 10.88,-64.83 7.33,-18.57 17.77,-33 31.4,-43.22 13.56,-10.3 29.88,-15.45 48.8,-15.45 14.5,0 27.12,2.83 38.07,8.57 10.88,5.65 20.01,13.84 27.41,24.58l3.77 -28.86 35.31 0 0 226.88c0,19.8 -3.7,36.91 -11.16,51.19 -7.48,14.29 -18.28,25.31 -32.49,33.07 -14.29,7.68 -31.55,11.53 -51.99,11.53zm1.09 -122.32c12.61,0 23.13,-2.91 31.69,-8.64 8.48,-5.72 15.44,-13.85 21.02,-24.29l0 -105.79c-5.44,-9.79 -12.4,-17.55 -21.02,-23.28 -8.71,-5.72 -19.08,-8.63 -31.26,-8.63 -13.34,0 -24.37,3.84 -33.28,11.46 -8.85,7.69 -15.45,18.2 -19.87,31.54 -4.35,13.42 -6.53,28.87 -6.53,46.49l0 4.42c0,23.13 4.86,41.62 14.65,55.68 9.79,13.99 24.65,21.04 44.6,21.04zm88.17 -166.13l-16.39 -34.22 51.2 0 0 26.75 -34.81 7.47zm165.25 195.63l0 -26.75 34.66 -5.95 0 -243.71 -34.66 -5.94 0 -26.76 137.91 0c22.49,0 41.48,3.4 57.01,10.08 15.51,6.74 27.33,16.54 35.38,29.22 8.05,12.76 12.11,28.35 12.11,46.77 0,18.13 -3.92,33.35 -11.75,45.68 -7.9,12.32 -19.07,21.61 -33.5,27.92 -14.42,6.31 -31.54,9.64 -51.41,10.07l-69.25 1.31 0 105.36 34.67 5.95 0 26.75 -111.17 0zm204.19 0l-68.8 -154.45 41.82 -0.43 57.15 123.63 21.47 3.84 0 27.41 -51.64 0zm-127.69 -170.98l57.14 0c23.35,0 40.39,-4.49 50.98,-13.41 10.66,-8.92 15.95,-21.97 15.95,-39.09 0,-16.31 -5.08,-29.14 -15.31,-38.64 -10.21,-9.5 -25.95,-14.29 -47.35,-14.29l-61.41 0 0 105.43zm320.14 175.48c-21.25,-0.07 -39.52,-5 -54.9,-15.01 -15.37,-10.01 -27.19,-23.78 -35.6,-41.4 -8.34,-17.62 -12.47,-37.78 -12.47,-60.48l0 -4.64c0,-22.7 4.13,-42.85 12.47,-60.47 8.41,-17.62 20.23,-31.47 35.6,-41.56 15.38,-10 33.5,-15.08 54.53,-15.08 21.25,0 39.52,5.08 54.89,15.08 15.37,10.09 27.19,23.94 35.6,41.48 8.35,17.55 12.55,37.71 12.55,60.55l0 4.64c0,22.84 -4.2,43 -12.55,60.69 -8.41,17.62 -20.23,31.4 -35.53,41.27 -15.29,9.93 -33.5,14.86 -54.59,14.93zm0 -32.77c13.34,0 24.5,-3.63 33.49,-10.96 8.99,-7.25 15.81,-17.25 20.38,-29.94 4.64,-12.62 6.89,-27.05 6.89,-43.22l0 -4.64c0,-16.17 -2.25,-30.6 -6.89,-43.21 -4.57,-12.69 -11.46,-22.7 -20.52,-30.02 -9.06,-7.26 -20.31,-10.88 -33.72,-10.88 -13.34,0 -24.51,3.62 -33.57,10.88 -9.06,7.32 -15.88,17.33 -20.44,30.02 -4.51,12.61 -6.75,27.04 -6.75,43.21l0 4.64c0,16.17 2.24,30.6 6.75,43.22 4.56,12.69 11.38,22.69 20.51,29.94 9.13,7.33 20.45,10.96 33.87,10.96zm246.25 32.77c-21.25,-0.07 -39.52,-5 -54.9,-15.01 -15.37,-10.01 -27.19,-23.78 -35.6,-41.4 -8.34,-17.62 -12.47,-37.78 -12.47,-60.48l0 -4.64c0,-22.7 4.13,-42.85 12.47,-60.47 8.41,-17.62 20.23,-31.47 35.6,-41.56 15.38,-10 33.5,-15.08 54.54,-15.08 21.24,0 39.51,5.08 54.88,15.08 15.37,10.09 27.19,23.94 35.6,41.48 8.35,17.55 12.55,37.71 12.55,60.55l0 4.64c0,22.84 -4.2,43 -12.55,60.69 -8.41,17.62 -20.23,31.4 -35.53,41.27 -15.29,9.93 -33.5,14.86 -54.59,14.93zm0 -32.77c13.34,0 24.5,-3.63 33.5,-10.96 8.98,-7.25 15.8,-17.25 20.37,-29.94 4.64,-12.62 6.89,-27.05 6.89,-43.22l0 -4.64c0,-16.17 -2.25,-30.6 -6.89,-43.21 -4.57,-12.69 -11.46,-22.7 -20.52,-30.02 -9.06,-7.26 -20.31,-10.88 -33.71,-10.88 -13.35,0 -24.52,3.62 -33.58,10.88 -9.06,7.32 -15.88,17.33 -20.44,30.02 -4.51,12.61 -6.75,27.04 -6.75,43.21l0 4.64c0,16.17 2.24,30.6 6.75,43.22 4.56,12.69 11.38,22.69 20.51,29.94 9.14,7.33 20.45,10.96 33.87,10.96zm134.94 28.27l0 -26.75 34.58 -5.95 0 -164.23 -34.58 -5.96 0 -26.96 72.22 0 2.75 29.94c7.39,-10.87 16.82,-19.29 28.5,-25.3 11.6,-5.95 25.02,-8.93 40.32,-8.93 15.29,0 28.42,3.56 39.44,10.66 10.95,7.11 19.21,17.69 24.72,31.84 7.26,-12.98 16.76,-23.36 28.65,-30.96 11.96,-7.69 25.82,-11.54 41.69,-11.54 23.5,0 42.05,8.05 55.61,24.15 13.64,16.1 20.46,40.25 20.46,72.52l0 104.77 34.58 5.95 0 26.75 -111.3 0 0 -26.75 34.58 -5.95 0 -105.13c0,-22.7 -3.83,-38.73 -11.67,-48.16 -7.76,-9.42 -19.28,-14.14 -34.59,-14.14 -14.57,0 -26.31,5.15 -35.16,15.45 -8.85,10.22 -14,23.13 -15.37,38.72l0 113.26 34.58 5.95 0 26.75 -111.09 0 0 -26.75 34.59 -5.95 0 -105.13c0,-21.54 -3.98,-37.35 -11.96,-47.28 -7.98,-10.01 -19.57,-15.02 -34.74,-15.02 -12.75,0 -23.27,2.61 -31.46,7.9 -8.2,5.23 -14.51,12.56 -18.86,22.05l0 137.48 34.59 5.95 0 26.75 -111.08 0zm-1198.94 587.21l0 -28.72 101.37 -112.54c12.04,-13.48 21.47,-24.94 28.21,-34.51 6.82,-9.57 11.52,-18.28 14.28,-26.04 2.68,-7.82 3.99,-15.87 3.99,-24.21 0,-15.45 -4.64,-28.43 -13.99,-39.01 -9.36,-10.52 -22.77,-15.81 -40.18,-15.81 -18.12,0 -32.27,5.44 -42.34,16.39 -10.15,10.87 -15.23,26.32 -15.23,46.26l-40.1 0 -0.43 -1.24c-0.44,-17.83 3.33,-33.93 11.24,-48.14 7.9,-14.21 19.43,-25.52 34.52,-33.79 15.08,-8.26 33.06,-12.4 53.86,-12.4 19.52,0 36.33,3.69 50.48,11.17 14.06,7.39 24.94,17.55 32.56,30.45 7.68,12.91 11.45,27.7 11.45,44.38 0,11.39 -2.17,22.62 -6.67,33.79 -4.42,11.16 -10.95,22.7 -19.51,34.44 -8.62,11.74 -18.92,24.15 -30.96,37.13l-81.35 88.61 0.43 1.08 109.85 0 3.41 -35.46 35.46 0 0 68.17 -200.35 0z"/>
  <rect class="fil0" x="10937.42" y="7851.02" width="1680.1" height="944.94" rx="112.75" ry="133.66"/>
  <path class="fil0" d="M11469.09 8795.96l616.76 0 0 270.62c0,44.11 -36.08,80.19 -80.2,80.19l-456.36 0c-44.11,0 -80.2,-36.08 -80.2,-80.19l0 -270.62z"/>
  <rect class="fil0" x="10937.42" y="6783.28" width="1680.1" height="944.94" rx="112.75" ry="133.66"/>
  <path class="fil0" d="M11469.09 6783.28l616.76 0 0 -270.62c0,-44.12 -36.08,-80.2 -80.2,-80.2l-456.36 0c-44.11,0 -80.2,36.08 -80.2,80.2l0 270.62z"/>
  <path class="fil0" d="M9063.02 4324.42l3446.8 0c166.23,0 302.23,-136 302.23,-302.23l0 -3471.69c0,-166.23 -136,-302.23 -302.23,-302.23l-3446.8 0c-166.23,0 -302.23,136 -302.23,302.23l0 3471.69c0,166.23 136,302.23 302.23,302.23zm304.64 -1928.02l0 -26.75 34.66 -5.95 0 -243.71 -34.66 -5.94 0 -26.98 34.66 0 55.84 0 99.62 234.79 1.31 0 96.44 -234.79 93.24 0 0 26.98 -34.58 5.94 0 243.71 34.58 5.95 0 26.75 -111.08 0 0 -26.75 36.54 -5.95 0 -89.69 0 -129.8 -1.08 -0.14 -100.43 241.31 -27.84 0 -103.91 -240.95 -1.02 0.21 1.45 129.37 0 89.69 37.42 5.95 0 26.75 -111.16 0zm521.57 4.5c-21.24,-0.07 -39.73,-4.86 -55.47,-14.57 -15.66,-9.72 -27.84,-23.21 -36.4,-40.47 -8.55,-17.33 -12.83,-37.26 -12.83,-59.89l0 -9.35c0,-21.83 4.49,-41.34 13.49,-58.52 8.99,-17.26 20.95,-30.82 35.88,-40.83 14.94,-10 31.26,-15.01 48.96,-15.01 20.66,0 37.99,4.29 51.98,12.77 13.92,8.48 24.44,20.45 31.54,35.82 7.04,15.37 10.59,33.43 10.59,54.23l0 26.19 -149.08 0 -0.66 1c0.3,14.8 2.84,27.85 7.76,39.23 4.87,11.39 11.9,20.39 21.11,26.91 9.21,6.45 20.23,9.72 33.13,9.72 14.15,0 26.62,-1.96 37.28,-6.02 10.73,-4.06 19.94,-9.65 27.76,-16.68l16.32 27.19c-8.2,7.91 -19.07,14.65 -32.63,20.09 -13.49,5.44 -29.73,8.12 -48.73,8.19zm-60.11 -142.33l106.01 0 0 -5.6c0,-11.02 -1.95,-20.88 -5.87,-29.57 -3.84,-8.71 -9.64,-15.6 -17.4,-20.6 -7.69,-5.07 -17.41,-7.54 -29,-7.54 -9.36,0 -17.85,2.68 -25.46,8.12 -7.69,5.51 -14,12.9 -18.92,22.19 -4.94,9.35 -8.2,20.01 -9.79,31.91l0.43 1.09zm291.42 142.33c-21.24,-0.07 -39.73,-4.86 -55.47,-14.57 -15.66,-9.72 -27.84,-23.21 -36.4,-40.47 -8.55,-17.33 -12.83,-37.26 -12.83,-59.89l0 -9.35c0,-21.83 4.49,-41.34 13.49,-58.52 8.99,-17.26 20.95,-30.82 35.88,-40.83 14.94,-10 31.26,-15.01 48.96,-15.01 20.66,0 37.99,4.29 51.98,12.77 13.92,8.48 24.44,20.45 31.54,35.82 7.04,15.37 10.59,33.43 10.59,54.23l0 26.19 -149.08 0 -0.65 1c0.29,14.8 2.83,27.85 7.75,39.23 4.87,11.39 11.9,20.39 21.11,26.91 9.21,6.45 20.23,9.72 33.13,9.72 14.15,0 26.62,-1.96 37.28,-6.02 10.73,-4.06 19.94,-9.65 27.76,-16.68l16.33 27.19c-8.21,7.91 -19.08,14.65 -32.64,20.09 -13.49,5.44 -29.73,8.12 -48.73,8.19zm-60.11 -142.33l106.01 0 0 -5.6c0,-11.02 -1.95,-20.88 -5.87,-29.57 -3.84,-8.71 -9.64,-15.6 -17.4,-20.6 -7.69,-5.07 -17.41,-7.54 -29,-7.54 -9.36,0 -17.85,2.68 -25.46,8.12 -7.69,5.51 -14,12.9 -18.92,22.19 -4.94,9.35 -8.2,20.01 -9.79,31.91l0.43 1.09zm261.55 141.46c-16.96,0 -30.45,-5.01 -40.46,-15.01 -10.01,-9.93 -15.01,-25.96 -15.01,-47.85l0 -139.6 -36.33 0 0 -31.02 36.33 0 0 -55.48 41.84 0 0 55.48 49.96 0 0 31.02 -49.96 0 0 139.6c0,11.02 2.25,19.14 6.6,24.43 4.42,5.22 10.3,7.84 17.62,7.84 5,0 10.51,-0.45 16.6,-1.39 6.1,-0.94 10.8,-1.74 14.22,-2.46l5.72 27.41c-6.08,1.81 -13.56,3.48 -22.4,4.86 -8.85,1.45 -17.11,2.17 -24.73,2.17zm72.44 -3.63l0 -26.75 34.65 -5.95 0 -164.23 -34.65 -5.96 0 -26.96 76.49 0 0 197.15 34.66 5.95 0 26.75 -111.15 0zm32.55 -286.56l0 -44.82 44.01 0 0 44.82 -44.01 0zm107.46 286.56l0 -26.75 34.59 -5.95 0 -164.23 -34.59 -5.96 0 -26.96 72.01 0 2.97 34.22c7.61,-12.18 17.26,-21.68 28.78,-28.35 11.54,-6.74 24.66,-10.16 39.38,-10.16 24.8,0 44.02,7.33 57.58,21.83 13.63,14.5 20.44,36.91 20.44,67.22l0 112.39 34.58 5.95 0 26.75 -111.08 0 0 -26.75 34.66 -5.95 0 -111.52c0,-20.3 -4.06,-34.66 -12.04,-43.14 -7.97,-8.48 -20.23,-12.77 -36.61,-12.77 -12.04,0 -22.7,2.91 -31.98,8.71 -9.29,5.79 -16.68,13.77 -22.19,23.78l0 134.94 34.59 5.95 0 26.75 -111.09 0zm384.02 92.82c-11.02,0 -22.99,-1.52 -35.89,-4.57 -12.84,-3.05 -24.22,-7.18 -33.94,-12.39l10.81 -32.49c7.75,4.06 16.96,7.46 27.62,10.15 10.59,2.68 20.96,4.06 31.04,4.06 18.63,0 32.34,-5.22 41.03,-15.74 8.78,-10.43 13.13,-25.37 13.13,-44.81l0 -21.9c-7.53,9.65 -16.53,16.97 -26.97,21.9 -10.52,4.93 -22.56,7.4 -36.19,7.47 -18.63,-0.07 -34.8,-4.64 -48.36,-13.93 -13.63,-9.27 -24.07,-22.25 -31.4,-38.93 -7.25,-16.61 -10.88,-35.89 -10.88,-57.86l0 -4.42c0,-24.67 3.63,-46.27 10.88,-64.83 7.33,-18.57 17.77,-33 31.4,-43.22 13.56,-10.3 29.88,-15.45 48.8,-15.45 14.5,0 27.12,2.83 38.07,8.57 10.88,5.65 20.01,13.84 27.41,24.58l3.77 -28.86 35.31 0 0 226.88c0,19.8 -3.7,36.91 -11.16,51.19 -7.48,14.29 -18.28,25.31 -32.49,33.07 -14.29,7.68 -31.55,11.53 -51.99,11.53zm1.09 -122.32c12.61,0 23.13,-2.91 31.69,-8.64 8.48,-5.72 15.44,-13.85 21.02,-24.29l0 -105.79c-5.44,-9.79 -12.4,-17.55 -21.02,-23.28 -8.71,-5.72 -19.08,-8.63 -31.26,-8.63 -13.34,0 -24.37,3.84 -33.28,11.46 -8.85,7.69 -15.45,18.2 -19.87,31.54 -4.35,13.42 -6.53,28.87 -6.53,46.49l0 4.42c0,23.13 4.86,41.62 14.65,55.68 9.79,13.99 24.65,21.04 44.6,21.04zm88.17 -166.13l-16.39 -34.22 51.2 0 0 26.75 -34.81 7.47zm165.26 195.63l0 -26.75 34.65 -5.95 0 -243.71 -34.65 -5.94 0 -26.76 137.9 0c22.49,0 41.48,3.4 57.01,10.08 15.51,6.74 27.33,16.54 35.38,29.22 8.05,12.76 12.11,28.35 12.11,46.77 0,18.13 -3.92,33.35 -11.75,45.68 -7.9,12.32 -19.07,21.61 -33.5,27.92 -14.42,6.31 -31.54,9.64 -51.41,10.07l-69.25 1.31 0 105.36 34.67 5.95 0 26.75 -111.16 0zm204.19 0l-68.81 -154.45 41.83 -0.43 57.14 123.63 21.47 3.84 0 27.41 -51.63 0zm-127.7 -170.98l57.14 0c23.35,0 40.39,-4.49 50.98,-13.41 10.66,-8.92 15.95,-21.97 15.95,-39.09 0,-16.31 -5.08,-29.14 -15.3,-38.64 -10.22,-9.5 -25.96,-14.29 -47.36,-14.29l-61.41 0 0 105.43zm320.14 175.48c-21.25,-0.07 -39.52,-5 -54.9,-15.01 -15.37,-10.01 -27.19,-23.78 -35.6,-41.4 -8.34,-17.62 -12.47,-37.78 -12.47,-60.48l0 -4.64c0,-22.7 4.13,-42.85 12.47,-60.47 8.41,-17.62 20.23,-31.47 35.6,-41.56 15.38,-10 33.5,-15.08 54.54,-15.08 21.24,0 39.51,5.08 54.88,15.08 15.37,10.09 27.19,23.94 35.6,41.48 8.35,17.55 12.55,37.71 12.55,60.55l0 4.64c0,22.84 -4.2,43 -12.55,60.69 -8.41,17.62 -20.23,31.4 -35.53,41.27 -15.29,9.93 -33.5,14.86 -54.59,14.93zm0 -32.77c13.34,0 24.5,-3.63 33.5,-10.96 8.98,-7.25 15.8,-17.25 20.37,-29.94 4.64,-12.62 6.89,-27.05 6.89,-43.22l0 -4.64c0,-16.17 -2.25,-30.6 -6.89,-43.21 -4.57,-12.69 -11.46,-22.7 -20.52,-30.02 -9.06,-7.26 -20.31,-10.88 -33.71,-10.88 -13.35,0 -24.52,3.62 -33.58,10.88 -9.06,7.32 -15.88,17.33 -20.44,30.02 -4.51,12.61 -6.75,27.04 -6.75,43.21l0 4.64c0,16.17 2.24,30.6 6.75,43.22 4.56,12.69 11.38,22.69 20.51,29.94 9.14,7.33 20.45,10.96 33.87,10.96zm246.25 32.77c-21.25,-0.07 -39.52,-5 -54.9,-15.01 -15.37,-10.01 -27.19,-23.78 -35.6,-41.4 -8.34,-17.62 -12.47,-37.78 -12.47,-60.48l0 -4.64c0,-22.7 4.13,-42.85 12.47,-60.47 8.41,-17.62 20.23,-31.47 35.6,-41.56 15.38,-10 33.5,-15.08 54.54,-15.08 21.24,0 39.51,5.08 54.88,15.08 15.38,10.09 27.19,23.94 35.61,41.48 8.34,17.55 12.54,37.71 12.54,60.55l0 4.64c0,22.84 -4.2,43 -12.54,60.69 -8.42,17.62 -20.23,31.4 -35.54,41.27 -15.29,9.93 -33.5,14.86 -54.59,14.93zm0 -32.77c13.34,0 24.5,-3.63 33.5,-10.96 8.98,-7.25 15.8,-17.25 20.37,-29.94 4.64,-12.62 6.89,-27.05 6.89,-43.22l0 -4.64c0,-16.17 -2.25,-30.6 -6.89,-43.21 -4.57,-12.69 -11.46,-22.7 -20.51,-30.02 -9.07,-7.26 -20.31,-10.88 -33.72,-10.88 -13.35,0 -24.52,3.62 -33.58,10.88 -9.06,7.32 -15.88,17.33 -20.44,30.02 -4.51,12.61 -6.75,27.04 -6.75,43.21l0 4.64c0,16.17 2.24,30.6 6.75,43.22 4.56,12.69 11.38,22.69 20.51,29.94 9.14,7.33 20.45,10.96 33.87,10.96zm134.94 28.27l0 -26.75 34.58 -5.95 0 -164.23 -34.58 -5.96 0 -26.96 72.22 0 2.75 29.94c7.4,-10.87 16.83,-19.29 28.5,-25.3 11.6,-5.95 25.02,-8.93 40.32,-8.93 15.29,0 28.42,3.56 39.44,10.66 10.95,7.11 19.21,17.69 24.72,31.84 7.26,-12.98 16.76,-23.36 28.65,-30.96 11.96,-7.69 25.82,-11.54 41.69,-11.54 23.5,0 42.06,8.05 55.62,24.15 13.63,16.1 20.45,40.25 20.45,72.52l0 104.77 34.58 5.95 0 26.75 -111.3 0 0 -26.75 34.59 -5.95 0 -105.13c0,-22.7 -3.84,-38.73 -11.68,-48.16 -7.76,-9.42 -19.28,-14.14 -34.59,-14.14 -14.56,0 -26.31,5.15 -35.16,15.45 -8.85,10.22 -14,23.13 -15.37,38.72l0 113.26 34.59 5.95 0 26.75 -111.1 0 0 -26.75 34.59 -5.95 0 -105.13c0,-21.54 -3.98,-37.35 -11.96,-47.28 -7.98,-10.01 -19.57,-15.02 -34.74,-15.02 -12.75,0 -23.27,2.61 -31.46,7.9 -8.2,5.23 -14.51,12.56 -18.86,22.05l0 137.48 34.59 5.95 0 26.75 -111.08 0zm-1104.27 591.7c-18.86,-0.07 -35.6,-3.48 -50.4,-10.37 -14.72,-6.82 -26.17,-16.6 -34.52,-29.29 -8.26,-12.69 -12.18,-27.7 -11.74,-45.11l0.65 -1.3 39.89 0c0,10.87 2.31,20.3 6.81,28.28 4.57,7.9 10.95,14.07 19.36,18.49 8.34,4.35 18.35,6.53 29.95,6.53 17.69,0 31.54,-4.79 41.62,-14.43 10.08,-9.65 15.08,-23.86 15.08,-42.72 0,-19.07 -4.49,-33.2 -13.41,-42.27 -8.92,-9.05 -22.99,-13.56 -42.28,-13.56l-36.47 0 0 -32.7 36.47 0c12.33,0 22.26,-2.11 29.81,-6.31 7.46,-4.2 12.9,-10.22 16.24,-18.05 3.33,-7.83 5.01,-17.33 5.01,-28.35 0,-17.7 -4.44,-31.18 -13.2,-40.39 -8.78,-9.21 -21.76,-13.78 -38.87,-13.78 -10.95,0 -20.45,2.18 -28.5,6.46 -8.05,4.35 -14.36,10.43 -18.78,18.26 -4.49,7.91 -6.67,17.12 -6.67,27.78l-40.17 0 -0.44 -1.3c-0.43,-15.6 3.27,-29.73 11.17,-42.5 7.83,-12.76 19,-22.83 33.35,-30.38 14.37,-7.47 31.04,-11.24 50.04,-11.24 28.57,0 51.41,7.61 68.38,22.85 16.96,15.22 25.52,36.9 25.52,65.11 0,12.76 -3.91,25.44 -11.6,38.14 -7.69,12.61 -19.29,22.33 -34.74,28.93 18.57,6.09 31.7,15.66 39.38,28.71 7.76,13.05 11.6,27.63 11.6,43.73 0,18.85 -4.2,35.02 -12.61,48.58 -8.42,13.49 -20.09,23.92 -34.95,31.25 -14.87,7.25 -31.91,10.88 -50.98,10.95z"/>
  <rect class="fil1" x="32.89" y="50.53" width="13019.94" height="9500" rx="301" ry="462.93"/>
 </g>
</svg>
