
<svg width="100%" viewBox="0 0 13800 7100">
 <g id="Capa_x0020_1">
  <g id="_934053576">
   <path class="fil0" d="M574.74 2392.76l615.8 0 0 270.61c0,44.12 -36.03,80.2 -80.07,80.2l-455.66 0c-44.04,0 -80.07,-36.08 -80.07,-80.2l0 -270.61zm-397.41 -944.95l1410.63 0c73.4,0 133.45,60.15 133.45,133.66l0 677.62c0,73.52 -60.05,133.66 -133.45,133.66l-1410.63 0c-73.4,0 -133.45,-60.14 -133.45,-133.66l0 -677.62c0,-73.51 60.05,-133.66 133.45,-133.66z"/>
   <path class="fil0" d="M2022.05 1447.81l1410.62 0c73.4,0 133.45,60.15 133.45,133.66l0 677.62c0,73.52 -60.05,133.66 -133.45,133.66l-1410.62 0c-73.4,0 -133.46,-60.14 -133.46,-133.66l0 -677.62c0,-73.51 60.06,-133.66 133.46,-133.66zm397.4 944.95l615.81 0 0 270.61c0,44.12 -36.04,80.2 -80.07,80.2l-455.67 0c-44.04,0 -80.07,-36.08 -80.07,-80.2l0 -270.61z"/>
   <path class="fil0" d="M4992.84 2392.76l615.81 0 0 270.61c0,44.12 -36.04,80.2 -80.07,80.2l-455.67 0c-44.04,0 -80.07,-36.08 -80.07,-80.2l0 -270.61zm-397.4 -944.95l1410.62 0c73.4,0 133.45,60.15 133.45,133.66l0 677.62c0,73.52 -60.05,133.66 -133.45,133.66l-1410.62 0c-73.4,0 -133.46,-60.14 -133.46,-133.66l0 -677.62c0,-73.51 60.06,-133.66 133.46,-133.66z"/>
   <path class="fil0" d="M6440.15 1447.81l1410.62 0c73.4,0 133.45,60.15 133.45,133.66l0 677.62c0,73.52 -60.05,133.66 -133.45,133.66l-1410.62 0c-73.4,0 -133.46,-60.14 -133.46,-133.66l0 -677.62c0,-73.51 60.06,-133.66 133.46,-133.66zm397.4 944.95l615.81 0 0 270.61c0,44.12 -36.04,80.2 -80.07,80.2l-455.67 0c-44.04,0 -80.07,-36.08 -80.07,-80.2l0 -270.61z"/>
   <path class="fil0" d="M1190.54 380.08l0 -270.62c0,-44.12 -36.03,-80.19 -80.07,-80.19l-455.66 0c-44.04,0 -80.07,36.07 -80.07,80.19l0 270.62 -397.41 0c-73.4,0 -133.45,60.14 -133.45,133.66l0 677.62c0,73.51 60.05,133.66 133.45,133.66l1410.63 0c73.4,0 133.45,-60.15 133.45,-133.66l0 -677.62c0,-73.52 -60.05,-133.66 -133.45,-133.66l-397.42 0z"/>
   <path class="fil0" d="M3035.26 380.08l0 -270.62c0,-44.12 -36.04,-80.19 -80.07,-80.19l-455.67 0c-44.04,0 -80.07,36.07 -80.07,80.19l0 270.62 -397.4 0c-73.4,0 -133.46,60.14 -133.46,133.66l0 677.62c0,73.51 60.06,133.66 133.46,133.66l1410.62 0c73.4,0 133.45,-60.15 133.45,-133.66l0 -677.62c0,-73.52 -60.05,-133.66 -133.45,-133.66l-397.41 0z"/>
   <path class="fil0" d="M5608.65 380.08l0 -270.62c0,-44.12 -36.04,-80.19 -80.07,-80.19l-455.67 0c-44.04,0 -80.07,36.07 -80.07,80.19l0 270.62 -397.4 0c-73.4,0 -133.46,60.14 -133.46,133.66l0 677.62c0,73.51 60.06,133.66 133.46,133.66l1410.62 0c73.4,0 133.45,-60.15 133.45,-133.66l0 -677.62c0,-73.52 -60.05,-133.66 -133.45,-133.66l-397.41 0z"/>
   <path class="fil0" d="M7453.36 380.08l0 -270.62c0,-44.12 -36.04,-80.19 -80.07,-80.19l-455.67 0c-44.04,0 -80.07,36.07 -80.07,80.19l0 270.62 -397.4 0c-73.4,0 -133.46,60.14 -133.46,133.66l0 677.62c0,73.51 60.06,133.66 133.46,133.66l1410.62 0c73.4,0 133.45,-60.15 133.45,-133.66l0 -677.62c0,-73.52 -60.05,-133.66 -133.45,-133.66l-397.41 0z"/>
   <path class="fil0" d="M13755.45 6780.97l0 -6336.66c0,-165.97 -136.01,-301.77 -302.23,-301.77l-3471.69 0c-166.23,0 -302.24,135.8 -302.24,301.77l0 6336.66c0,165.98 136.01,301.77 302.24,301.77l3471.69 0c166.22,0 302.23,-135.79 302.23,-301.77zm-3011.61 -3380.15l0 -31.9 41.32 -7.09 0 -290.54 -41.32 -7.09 0 -32.15 41.32 0 66.57 0 118.77 279.9 1.56 0 114.97 -279.9 111.17 0 0 32.15 -41.24 7.09 0 290.54 41.24 7.09 0 31.9 -132.44 0 0 -31.9 43.57 -7.09 0 -106.93 0 -154.74 -1.29 -0.17 -119.73 287.69 -33.2 0 -123.87 -287.26 -1.21 0.26 1.73 154.22 0 106.93 44.6 7.09 0 31.9 -132.52 0zm621.81 5.36c-25.33,-0.09 -47.38,-5.79 -66.14,-17.38 -18.67,-11.58 -33.19,-27.66 -43.39,-48.23 -10.2,-20.66 -15.3,-44.43 -15.3,-71.41l0 -11.15c0,-26.02 5.36,-49.27 16.08,-69.76 10.72,-20.57 24.98,-36.74 42.79,-48.67 17.81,-11.93 37.26,-17.89 58.35,-17.89 24.63,0 45.3,5.1 61.98,15.21 16.6,10.12 29.13,24.38 37.6,42.71 8.39,18.32 12.62,39.85 12.62,64.66l0 31.2 -177.73 0 -0.78 1.21c0.35,17.64 3.38,33.2 9.25,46.77 5.8,13.57 14.18,24.29 25.16,32.07 10.98,7.7 24.12,11.59 39.51,11.59 16.85,0 31.72,-2.34 44.43,-7.18 12.79,-4.84 23.77,-11.5 33.11,-19.88l19.45 32.42c-9.77,9.42 -22.74,17.46 -38.9,23.94 -16.08,6.48 -35.45,9.68 -58.09,9.77zm-71.67 -169.69l126.38 0 0 -6.66c0,-13.14 -2.33,-24.89 -7,-35.27 -4.58,-10.37 -11.49,-18.58 -20.74,-24.55 -9.17,-6.05 -20.75,-8.99 -34.58,-8.99 -11.15,0 -21.27,3.2 -30.34,9.68 -9.17,6.57 -16.69,15.39 -22.57,26.46 -5.87,11.15 -9.76,23.85 -11.67,38.03l0.52 1.3zm347.43 169.69c-25.33,-0.09 -47.38,-5.79 -66.14,-17.38 -18.67,-11.58 -33.19,-27.66 -43.39,-48.23 -10.2,-20.66 -15.3,-44.43 -15.3,-71.41l0 -11.15c0,-26.02 5.36,-49.27 16.08,-69.76 10.72,-20.57 24.98,-36.74 42.79,-48.67 17.81,-11.93 37.26,-17.89 58.35,-17.89 24.63,0 45.3,5.1 61.98,15.21 16.6,10.12 29.13,24.38 37.6,42.71 8.39,18.32 12.62,39.85 12.62,64.66l0 31.2 -177.73 0 -0.78 1.21c0.35,17.64 3.38,33.2 9.25,46.77 5.8,13.57 14.18,24.29 25.16,32.07 10.98,7.7 24.12,11.59 39.51,11.59 16.85,0 31.72,-2.34 44.43,-7.18 12.79,-4.84 23.77,-11.5 33.11,-19.88l19.45 32.42c-9.77,9.42 -22.74,17.46 -38.9,23.94 -16.08,6.48 -35.45,9.68 -58.09,9.77zm-71.67 -169.69l126.38 0 0 -6.66c0,-13.14 -2.33,-24.89 -7,-35.27 -4.58,-10.37 -11.49,-18.58 -20.74,-24.55 -9.17,-6.05 -20.75,-8.99 -34.58,-8.99 -11.15,0 -21.27,3.2 -30.34,9.68 -9.17,6.57 -16.69,15.39 -22.57,26.46 -5.87,11.15 -9.76,23.85 -11.67,38.03l0.52 1.3zm311.81 168.65c-20.23,0 -36.31,-5.96 -48.24,-17.89 -11.93,-11.84 -17.89,-30.95 -17.89,-57.06l0 -166.4 -43.31 0 0 -37 43.31 0 0 -66.13 49.88 0 0 66.13 59.56 0 0 37 -59.56 0 0 166.4c0,13.14 2.68,22.83 7.87,29.14 5.27,6.22 12.27,9.33 21,9.33 5.97,0 12.54,-0.52 19.8,-1.64 7.26,-1.12 12.88,-2.07 16.94,-2.94l6.83 32.68c-7.26,2.16 -16.17,4.15 -26.71,5.79 -10.55,1.73 -20.4,2.59 -29.48,2.59zm86.36 -4.32l0 -31.9 41.32 -7.09 0 -195.79 -41.32 -7.09 0 -32.16 91.2 0 0 235.04 41.32 7.09 0 31.9 -132.52 0zm38.82 -341.63l0 -53.42 52.47 0 0 53.42 -52.47 0zm128.11 341.63l0 -31.9 41.23 -7.09 0 -195.79 -41.23 -7.09 0 -32.16 85.84 0 3.54 40.8c9.08,-14.52 20.58,-25.85 34.32,-33.8 13.75,-8.04 29.39,-12.1 46.94,-12.1 29.57,0 52.47,8.73 68.64,26.02 16.25,17.29 24.38,44 24.38,80.13l0 133.99 41.23 7.09 0 31.9 -132.43 0 0 -31.9 41.32 -7.09 0 -132.95c0,-24.2 -4.84,-41.32 -14.35,-51.43 -9.51,-10.12 -24.12,-15.22 -43.66,-15.22 -14.35,0 -27.05,3.46 -38.12,10.38 -11.06,6.91 -19.88,16.42 -26.45,28.35l0 160.87 41.23 7.09 0 31.9 -132.43 0zm457.81 110.65c-13.14,0 -27.4,-1.82 -42.79,-5.45 -15.3,-3.63 -28.87,-8.55 -40.45,-14.78l12.88 -38.73c9.25,4.85 20.23,8.91 32.93,12.11 12.62,3.19 24.99,4.84 37,4.84 22.22,0 38.56,-6.23 48.93,-18.76 10.46,-12.45 15.65,-30.26 15.65,-53.42l0 -26.11c-8.99,11.5 -19.71,20.23 -32.16,26.11 -12.54,5.87 -26.89,8.81 -43.14,8.9 -22.21,-0.09 -41.49,-5.53 -57.66,-16.6 -16.25,-11.06 -28.7,-26.54 -37.43,-46.42 -8.64,-19.79 -12.96,-42.79 -12.96,-68.98l0 -5.28c0,-29.39 4.32,-55.15 12.96,-77.28 8.73,-22.13 21.18,-39.33 37.43,-51.52 16.17,-12.27 35.62,-18.41 58.18,-18.41 17.29,0 32.33,3.37 45.38,10.2 12.97,6.74 23.86,16.51 32.68,29.3l4.5 -34.4 42.09 0 0 270.49c0,23.6 -4.4,44 -13.31,61.03 -8.9,17.03 -21.78,30.17 -38.73,39.41 -17.03,9.17 -37.6,13.75 -61.98,13.75zm1.3 -145.83c15.04,0 27.58,-3.46 37.78,-10.29 10.11,-6.83 18.41,-16.51 25.07,-28.96l0 -126.12c-6.49,-11.67 -14.79,-20.92 -25.07,-27.75 -10.38,-6.83 -22.74,-10.29 -37.26,-10.29 -15.91,0 -29.05,4.58 -39.68,13.66 -10.55,9.16 -18.41,21.7 -23.69,37.6 -5.18,16 -7.78,34.41 -7.78,55.41l0 5.28c0,27.57 5.8,49.62 17.47,66.39 11.67,16.68 29.39,25.07 53.16,25.07zm105.12 -198.05l-19.54 -40.8 61.03 0 0 31.9 -41.49 8.9zm-1660.05 933.26l0 -31.9 41.32 -7.09 0 -290.54 -41.32 -7.09 0 -31.9 164.42 0c26.79,0 49.44,4.07 67.94,12.02 18.5,8.04 32.59,19.71 42.19,34.84 9.59,15.21 14.43,33.8 14.43,55.76 0,21.61 -4.66,39.76 -14,54.46 -9.42,14.69 -22.74,25.76 -39.94,33.28 -17.2,7.52 -37.6,11.49 -61.29,12.01l-82.55 1.56 0 125.6 41.32 7.09 0 31.9 -132.52 0zm243.43 0l-82.04 -184.13 49.88 -0.52 68.12 147.39 25.59 4.58 0 32.68 -61.55 0zm-152.23 -203.84l68.12 0c27.83,0 48.15,-5.36 60.77,-15.99 12.7,-10.63 19.01,-26.19 19.01,-46.59 0,-19.45 -6.05,-34.75 -18.24,-46.08 -12.18,-11.32 -30.94,-17.03 -56.44,-17.03l-73.22 0 0 125.69zm381.65 209.2c-25.33,-0.09 -47.11,-5.97 -65.44,-17.89 -18.33,-11.93 -32.42,-28.36 -42.45,-49.36 -9.94,-21.01 -14.86,-45.04 -14.86,-72.1l0 -5.53c0,-27.06 4.92,-51.09 14.86,-72.1 10.03,-21 24.12,-37.51 42.45,-49.53 18.33,-11.93 39.94,-17.98 65.01,-17.98 25.32,0 47.11,6.05 65.43,17.98 18.33,12.02 32.42,28.53 42.45,49.45 9.94,20.92 14.95,44.95 14.95,72.18l0 5.53c0,27.23 -5.01,51.26 -14.95,72.35 -10.03,21.01 -24.12,37.44 -42.36,49.19 -18.24,11.84 -39.94,17.72 -65.09,17.81zm0 -39.07c15.9,0 29.22,-4.33 39.94,-13.06 10.71,-8.64 18.84,-20.57 24.29,-35.7 5.53,-15.04 8.21,-32.24 8.21,-51.52l0 -5.53c0,-19.28 -2.68,-36.48 -8.21,-51.52 -5.45,-15.13 -13.66,-27.06 -24.47,-35.79 -10.8,-8.65 -24.2,-12.97 -40.19,-12.97 -15.91,0 -29.22,4.32 -40.03,12.97 -10.8,8.73 -18.93,20.66 -24.38,35.79 -5.36,15.04 -8.04,32.24 -8.04,51.52l0 5.53c0,19.28 2.68,36.48 8.04,51.52 5.45,15.13 13.58,27.06 24.47,35.7 10.89,8.73 24.38,13.06 40.37,13.06zm293.57 39.07c-25.33,-0.09 -47.11,-5.97 -65.44,-17.89 -18.33,-11.93 -32.42,-28.36 -42.45,-49.36 -9.94,-21.01 -14.86,-45.04 -14.86,-72.1l0 -5.53c0,-27.06 4.92,-51.09 14.86,-72.1 10.03,-21 24.12,-37.51 42.45,-49.53 18.33,-11.93 39.94,-17.98 65.01,-17.98 25.32,0 47.11,6.05 65.43,17.98 18.33,12.02 32.42,28.53 42.45,49.45 9.94,20.92 14.95,44.95 14.95,72.18l0 5.53c0,27.23 -5.01,51.26 -14.95,72.35 -10.03,21.01 -24.12,37.44 -42.36,49.19 -18.24,11.84 -39.94,17.72 -65.09,17.81zm0 -39.07c15.9,0 29.22,-4.33 39.94,-13.06 10.71,-8.64 18.84,-20.57 24.29,-35.7 5.53,-15.04 8.21,-32.24 8.21,-51.52l0 -5.53c0,-19.28 -2.68,-36.48 -8.21,-51.52 -5.45,-15.13 -13.66,-27.06 -24.47,-35.79 -10.8,-8.65 -24.2,-12.97 -40.19,-12.97 -15.91,0 -29.22,4.32 -40.03,12.97 -10.8,8.73 -18.93,20.66 -24.38,35.79 -5.36,15.04 -8.04,32.24 -8.04,51.52l0 5.53c0,19.28 2.68,36.48 8.04,51.52 5.45,15.13 13.58,27.06 24.47,35.7 10.89,8.73 24.38,13.06 40.37,13.06zm160.87 33.71l0 -31.9 41.23 -7.09 0 -195.79 -41.23 -7.09 0 -32.16 86.1 0 3.28 35.7c8.82,-12.97 20.06,-22.99 33.98,-30.17 13.83,-7.09 29.82,-10.63 48.06,-10.63 18.24,0 33.89,4.23 47.03,12.71 13.05,8.47 22.9,21.09 29.47,37.95 8.65,-15.48 19.97,-27.84 34.15,-36.92 14.26,-9.16 30.77,-13.74 49.7,-13.74 28.01,0 50.14,9.59 66.31,28.79 16.25,19.19 24.38,47.97 24.38,86.44l0 124.91 41.23 7.09 0 31.9 -132.69 0 0 -31.9 41.23 -7.09 0 -125.34c0,-27.06 -4.58,-46.16 -13.92,-57.4 -9.25,-11.24 -22.99,-16.86 -41.23,-16.86 -17.38,0 -31.38,6.14 -41.93,18.41 -10.54,12.19 -16.68,27.58 -18.32,46.17l0 135.02 41.23 7.09 0 31.9 -132.43 0 0 -31.9 41.23 -7.09 0 -125.34c0,-25.68 -4.75,-44.52 -14.26,-56.36 -9.51,-11.93 -23.34,-17.9 -41.41,-17.9 -15.21,0 -27.75,3.11 -37.52,9.42 -9.76,6.23 -17.29,14.96 -22.47,26.28l0 163.9 41.23 7.09 0 31.9 -132.43 0z"/>
   <path class="fil0" d="M574.74 6731.93l615.8 0 0 270.61c0,44.12 -36.03,80.2 -80.07,80.2l-455.66 0c-44.04,0 -80.07,-36.08 -80.07,-80.2l0 -270.61zm-397.41 -944.95l1410.63 0c73.4,0 133.45,60.15 133.45,133.66l0 677.62c0,73.52 -60.05,133.66 -133.45,133.66l-1410.63 0c-73.4,0 -133.45,-60.14 -133.45,-133.66l0 -677.62c0,-73.51 60.05,-133.66 133.45,-133.66z"/>
   <path class="fil0" d="M2022.05 5786.98l1410.62 0c73.4,0 133.45,60.15 133.45,133.66l0 677.62c0,73.52 -60.05,133.66 -133.45,133.66l-1410.62 0c-73.4,0 -133.46,-60.14 -133.46,-133.66l0 -677.62c0,-73.51 60.06,-133.66 133.46,-133.66zm397.4 944.95l615.81 0 0 270.61c0,44.12 -36.04,80.2 -80.07,80.2l-455.67 0c-44.04,0 -80.07,-36.08 -80.07,-80.2l0 -270.61z"/>
   <path class="fil0" d="M4992.84 6731.93l615.81 0 0 270.61c0,44.12 -36.04,80.2 -80.07,80.2l-455.67 0c-44.04,0 -80.07,-36.08 -80.07,-80.2l0 -270.61zm-397.4 -944.95l1410.62 0c73.4,0 133.45,60.15 133.45,133.66l0 677.62c0,73.52 -60.05,133.66 -133.45,133.66l-1410.62 0c-73.4,0 -133.46,-60.14 -133.46,-133.66l0 -677.62c0,-73.51 60.06,-133.66 133.46,-133.66z"/>
   <path class="fil0" d="M6440.15 5786.98l1410.62 0c73.4,0 133.45,60.15 133.45,133.66l0 677.62c0,73.52 -60.05,133.66 -133.45,133.66l-1410.62 0c-73.4,0 -133.46,-60.14 -133.46,-133.66l0 -677.62c0,-73.51 60.06,-133.66 133.46,-133.66zm397.4 944.95l615.81 0 0 270.61c0,44.12 -36.04,80.2 -80.07,80.2l-455.67 0c-44.04,0 -80.07,-36.08 -80.07,-80.2l0 -270.61z"/>
   <path class="fil0" d="M1190.54 4719.25l0 -270.62c0,-44.12 -36.03,-80.19 -80.07,-80.19l-455.66 0c-44.04,0 -80.07,36.07 -80.07,80.19l0 270.62 -397.41 0c-73.4,0 -133.45,60.14 -133.45,133.66l0 677.62c0,73.51 60.05,133.66 133.45,133.66l1410.63 0c73.4,0 133.45,-60.15 133.45,-133.66l0 -677.62c0,-73.52 -60.05,-133.66 -133.45,-133.66l-397.42 0z"/>
   <path class="fil0" d="M3035.26 4719.25l0 -270.62c0,-44.12 -36.04,-80.19 -80.07,-80.19l-455.67 0c-44.04,0 -80.07,36.07 -80.07,80.19l0 270.62 -397.4 0c-73.4,0 -133.46,60.14 -133.46,133.66l0 677.62c0,73.51 60.06,133.66 133.46,133.66l1410.62 0c73.4,0 133.45,-60.15 133.45,-133.66l0 -677.62c0,-73.52 -60.05,-133.66 -133.45,-133.66l-397.41 0z"/>
   <path class="fil0" d="M5608.65 4719.25l0 -270.62c0,-44.12 -36.04,-80.19 -80.07,-80.19l-455.67 0c-44.04,0 -80.07,36.07 -80.07,80.19l0 270.62 -397.4 0c-73.4,0 -133.46,60.14 -133.46,133.66l0 677.62c0,73.51 60.06,133.66 133.46,133.66l1410.62 0c73.4,0 133.45,-60.15 133.45,-133.66l0 -677.62c0,-73.52 -60.05,-133.66 -133.45,-133.66l-397.41 0z"/>
   <path class="fil0" d="M7453.36 4719.25l0 -270.62c0,-44.12 -36.04,-80.19 -80.07,-80.19l-455.67 0c-44.04,0 -80.07,36.07 -80.07,80.19l0 270.62 -397.4 0c-73.4,0 -133.46,60.14 -133.46,133.66l0 677.62c0,73.51 60.06,133.66 133.46,133.66l1410.62 0c73.4,0 133.45,-60.15 133.45,-133.66l0 -677.62c0,-73.52 -60.05,-133.66 -133.45,-133.66l-397.41 0z"/>
  </g>
 </g>
</svg>
