
<svg width="100%" height="133mm" version="1.1" viewBox="0 0 12200 13300">
 <defs>
 </defs>
 <g id="Capa_x0020_1">
  <metadata id="CorelCorpID_0Corel-Layer"/>
  <g id="_930477432">
   <path class="fil0" d="M619.5 8583.66l615.8 0 0 270.61c0,44.12 -36.03,80.2 -80.07,80.2l-455.66 0c-44.04,0 -80.07,-36.08 -80.07,-80.2l0 -270.61zm-397.41 -944.95l1410.63 0c73.4,0 133.45,60.15 133.45,133.66l0 677.62c0,73.52 -60.05,133.66 -133.45,133.66l-1410.63 0c-73.4,0 -133.45,-60.14 -133.45,-133.66l0 -677.62c0,-73.51 60.05,-133.66 133.45,-133.66z"/>
   <path class="fil0" d="M2066.81 7638.71l1410.62 0c73.4,0 133.45,60.15 133.45,133.66l0 677.62c0,73.52 -60.05,133.66 -133.45,133.66l-1410.62 0c-73.4,0 -133.46,-60.14 -133.46,-133.66l0 -677.62c0,-73.51 60.06,-133.66 133.46,-133.66zm397.4 944.95l615.81 0 0 270.61c0,44.12 -36.04,80.2 -80.07,80.2l-455.67 0c-44.04,0 -80.07,-36.08 -80.07,-80.2l0 -270.61z"/>
   <path class="fil0" d="M5037.6 8583.66l615.81 0 0 270.61c0,44.12 -36.04,80.2 -80.07,80.2l-455.67 0c-44.04,0 -80.07,-36.08 -80.07,-80.2l0 -270.61zm-397.4 -944.95l1410.62 0c73.4,0 133.45,60.15 133.45,133.66l0 677.62c0,73.52 -60.05,133.66 -133.45,133.66l-1410.62 0c-73.4,0 -133.46,-60.14 -133.46,-133.66l0 -677.62c0,-73.51 60.06,-133.66 133.46,-133.66z"/>
   <path class="fil0" d="M6484.91 7638.71l1410.62 0c73.4,0 133.45,60.15 133.45,133.66l0 677.62c0,73.52 -60.05,133.66 -133.45,133.66l-1410.62 0c-73.4,0 -133.46,-60.14 -133.46,-133.66l0 -677.62c0,-73.51 60.06,-133.66 133.46,-133.66zm397.4 944.95l615.81 0 0 270.61c0,44.12 -36.04,80.2 -80.07,80.2l-455.67 0c-44.04,0 -80.07,-36.08 -80.07,-80.2l0 -270.61z"/>
   <path class="fil0" d="M8763.39 7638.71l1410.62 0c73.4,0 133.45,60.15 133.45,133.66l0 677.62c0,73.52 -60.05,133.66 -133.45,133.66l-1410.62 0c-73.41,0 -133.46,-60.14 -133.46,-133.66l0 -677.62c0,-73.51 60.05,-133.66 133.46,-133.66zm397.4 944.95l615.8 0 0 270.61c0,44.12 -36.03,80.2 -80.07,80.2l-455.66 0c-44.04,0 -80.07,-36.08 -80.07,-80.2l0 -270.61z"/>
   <path class="fil0" d="M1235.3 6570.98l0 -270.62c0,-44.12 -36.03,-80.19 -80.07,-80.19l-455.66 0c-44.04,0 -80.07,36.07 -80.07,80.19l0 270.62 -397.41 0c-73.4,0 -133.45,60.14 -133.45,133.66l0 677.62c0,73.51 60.05,133.66 133.45,133.66l1410.63 0c73.4,0 133.45,-60.15 133.45,-133.66l0 -677.62c0,-73.52 -60.05,-133.66 -133.45,-133.66l-397.42 0z"/>
   <path class="fil0" d="M3080.02 6570.98l0 -270.62c0,-44.12 -36.04,-80.19 -80.07,-80.19l-455.67 0c-44.04,0 -80.07,36.07 -80.07,80.19l0 270.62 -397.4 0c-73.4,0 -133.46,60.14 -133.46,133.66l0 677.62c0,73.51 60.06,133.66 133.46,133.66l1410.62 0c73.4,0 133.45,-60.15 133.45,-133.66l0 -677.62c0,-73.52 -60.05,-133.66 -133.45,-133.66l-397.41 0z"/>
   <path class="fil0" d="M5653.41 6570.98l0 -270.62c0,-44.12 -36.04,-80.19 -80.07,-80.19l-455.67 0c-44.04,0 -80.07,36.07 -80.07,80.19l0 270.62 -397.4 0c-73.4,0 -133.46,60.14 -133.46,133.66l0 677.62c0,73.51 60.06,133.66 133.46,133.66l1410.62 0c73.4,0 133.45,-60.15 133.45,-133.66l0 -677.62c0,-73.52 -60.05,-133.66 -133.45,-133.66l-397.41 0z"/>
   <path class="fil0" d="M7498.12 6570.98l0 -270.62c0,-44.12 -36.04,-80.19 -80.07,-80.19l-455.67 0c-44.04,0 -80.07,36.07 -80.07,80.19l0 270.62 -397.4 0c-73.4,0 -133.46,60.14 -133.46,133.66l0 677.62c0,73.51 60.06,133.66 133.46,133.66l1410.62 0c73.4,0 133.45,-60.15 133.45,-133.66l0 -677.62c0,-73.52 -60.05,-133.66 -133.45,-133.66l-397.41 0z"/>
   <path class="fil0" d="M8763.39 7515.92l1410.62 0c73.4,0 133.45,-60.15 133.45,-133.66l0 -677.62c0,-73.52 -60.05,-133.66 -133.45,-133.66l-397.42 0 0 -270.62c0,-44.12 -36.03,-80.19 -80.07,-80.19l-455.66 0c-44.04,0 -80.07,36.07 -80.07,80.19l0 270.62 -397.4 0c-73.41,0 -133.46,60.14 -133.46,133.66l0 677.62c0,73.51 60.05,133.66 133.46,133.66z"/>
   <path class="fil0" d="M10608.1 7638.71l1410.62 0c73.4,0 133.44,60.15 133.44,133.66l0 677.62c0,73.52 -60.04,133.66 -133.44,133.66l-1410.62 0c-73.4,0 -133.46,-60.14 -133.46,-133.66l0 -677.62c0,-73.51 60.06,-133.66 133.46,-133.66zm397.4 944.95l615.81 0 0 270.61c0,44.12 -36.04,80.2 -80.07,80.2l-455.67 0c-44.04,0 -80.07,-36.08 -80.07,-80.2l0 -270.61z"/>
   <path class="fil0" d="M10608.1 7515.92l1410.62 0c73.4,0 133.44,-60.15 133.44,-133.66l0 -677.62c0,-73.52 -60.04,-133.66 -133.44,-133.66l-397.41 0 0 -270.62c0,-44.12 -36.04,-80.19 -80.07,-80.19l-455.67 0c-44.04,0 -80.07,36.07 -80.07,80.19l0 270.62 -397.4 0c-73.4,0 -133.46,60.14 -133.46,133.66l0 677.62c0,73.51 60.06,133.66 133.46,133.66z"/>
   <path class="fil0" d="M340.67 4112.12l11509.72 0c165.97,0 301.77,-136.01 301.77,-302.23l0 -3471.69c0,-166.23 -135.8,-302.24 -301.77,-302.24l-11509.72 0c-165.98,0 -301.77,136.01 -301.77,302.24l0 3471.69c0,166.22 135.79,302.23 301.77,302.23zm3885.63 -1880.92l0 -35.25 45.67 -7.84 0 -321.1 -45.67 -7.84 0 -35.54 45.67 0 73.56 0 131.27 309.36 1.72 0 127.07 -309.36 122.86 0 0 35.54 -45.57 7.84 0 321.1 45.57 7.84 0 35.25 -146.36 0 0 -35.25 48.15 -7.84 0 -118.18 0 -171.01 -1.43 -0.19 -132.32 317.95 -36.69 0 -136.91 -317.48 -1.34 0.29 1.92 170.44 0 118.18 49.29 7.84 0 35.25 -146.46 0zm687.21 5.92c-27.99,-0.09 -52.36,-6.4 -73.09,-19.2 -20.63,-12.8 -36.68,-30.57 -47.96,-53.31 -11.27,-22.83 -16.91,-49.11 -16.91,-78.91l0 -12.33c0,-28.76 5.93,-54.46 17.77,-77.1 11.85,-22.74 27.61,-40.6 47.29,-53.79 19.68,-13.18 41.18,-19.77 64.49,-19.77 27.23,0 50.06,5.63 68.5,16.81 18.35,11.18 32.2,26.94 41.56,47.2 9.27,20.25 13.95,44.04 13.95,71.46l0 34.49 -196.43 0 -0.86 1.34c0.39,19.49 3.73,36.68 10.23,51.68 6.4,15 15.66,26.85 27.8,35.45 12.13,8.5 26.65,12.8 43.66,12.8 18.63,0 35.06,-2.58 49.11,-7.93 14.14,-5.35 26.27,-12.71 36.59,-21.97l21.49 35.82c-10.79,10.42 -25.12,19.3 -42.99,26.47 -17.77,7.16 -39.17,10.7 -64.2,10.79zm-79.2 -187.54l139.67 0 0 -7.35c0,-14.53 -2.57,-27.52 -7.73,-38.98 -5.07,-11.47 -12.71,-20.55 -22.93,-27.14 -10.13,-6.69 -22.93,-9.93 -38.22,-9.93 -12.32,0 -23.5,3.53 -33.53,10.7 -10.13,7.26 -18.44,17 -24.94,29.23 -6.49,12.33 -10.79,26.37 -12.9,42.04l0.58 1.43zm383.97 187.54c-27.99,-0.09 -52.36,-6.4 -73.09,-19.2 -20.63,-12.8 -36.68,-30.57 -47.96,-53.31 -11.27,-22.83 -16.91,-49.11 -16.91,-78.91l0 -12.33c0,-28.76 5.93,-54.46 17.77,-77.1 11.85,-22.74 27.61,-40.6 47.29,-53.79 19.68,-13.18 41.18,-19.77 64.49,-19.77 27.23,0 50.06,5.63 68.5,16.81 18.35,11.18 32.2,26.94 41.56,47.2 9.27,20.25 13.95,44.04 13.95,71.46l0 34.49 -196.43 0 -0.86 1.34c0.39,19.49 3.73,36.68 10.23,51.68 6.4,15 15.66,26.85 27.8,35.45 12.13,8.5 26.65,12.8 43.66,12.8 18.63,0 35.06,-2.58 49.11,-7.93 14.14,-5.35 26.27,-12.71 36.59,-21.97l21.49 35.82c-10.79,10.42 -25.12,19.3 -42.99,26.47 -17.77,7.16 -39.17,10.7 -64.2,10.79zm-79.2 -187.54l139.67 0 0 -7.35c0,-14.53 -2.57,-27.52 -7.73,-38.98 -5.07,-11.47 -12.71,-20.55 -22.93,-27.14 -10.13,-6.69 -22.93,-9.93 -38.22,-9.93 -12.32,0 -23.5,3.53 -33.53,10.7 -10.13,7.26 -18.44,17 -24.94,29.23 -6.49,12.33 -10.79,26.37 -12.9,42.04l0.58 1.43zm344.61 186.4c-22.36,0 -40.13,-6.6 -53.31,-19.78 -13.19,-13.09 -19.78,-34.2 -19.78,-63.05l0 -183.92 -47.86 0 0 -40.89 47.86 0 0 -73.08 55.13 0 0 73.08 65.82 0 0 40.89 -65.82 0 0 183.92c0,14.52 2.96,25.22 8.69,32.19 5.83,6.88 13.57,10.32 23.22,10.32 6.59,0 13.85,-0.57 21.88,-1.82 8.02,-1.24 14.23,-2.29 18.72,-3.24l7.55 36.11c-8.03,2.39 -17.87,4.59 -29.52,6.4 -11.66,1.91 -22.55,2.87 -32.58,2.87zm95.45 -4.78l0 -35.25 45.66 -7.84 0 -216.39 -45.66 -7.84 0 -35.54 100.79 0 0 259.77 45.67 7.84 0 35.25 -146.46 0zm42.89 -377.57l0 -59.04 57.99 0 0 59.04 -57.99 0zm141.59 377.57l0 -35.25 45.57 -7.84 0 -216.39 -45.57 -7.84 0 -35.54 94.87 0 3.92 45.1c10.03,-16.05 22.74,-28.57 37.93,-37.36 15.19,-8.88 32.48,-13.37 51.87,-13.37 32.68,0 58,9.65 75.86,28.75 17.96,19.11 26.94,48.63 26.94,88.57l0 148.08 45.58 7.84 0 35.25 -146.37 0 0 -35.25 45.67 -7.84 0 -146.94c0,-26.75 -5.35,-45.66 -15.86,-56.84 -10.51,-11.18 -26.66,-16.82 -48.25,-16.82 -15.86,0 -29.9,3.83 -42.13,11.47 -12.23,7.64 -21.97,18.15 -29.24,31.34l0 177.79 45.58 7.84 0 35.25 -146.37 0zm505.98 122.29c-14.53,0 -30.29,-2.01 -47.3,-6.02 -16.91,-4.01 -31.91,-9.46 -44.71,-16.34l14.24 -42.8c10.22,5.35 22.35,9.84 36.4,13.38 13.95,3.53 27.61,5.35 40.89,5.35 24.55,0 42.61,-6.88 54.07,-20.73 11.56,-13.76 17.3,-33.44 17.3,-59.05l0 -28.85c-9.94,12.71 -21.79,22.36 -35.55,28.85 -13.85,6.5 -29.71,9.75 -47.67,9.84 -24.55,-0.09 -45.86,-6.11 -63.72,-18.34 -17.96,-12.23 -31.72,-29.33 -41.37,-51.3 -9.55,-21.88 -14.33,-47.3 -14.33,-76.24l0 -5.83c0,-32.48 4.78,-60.95 14.33,-85.41 9.65,-24.46 23.41,-43.47 41.37,-56.94 17.86,-13.57 39.36,-20.35 64.29,-20.35 19.11,0 35.74,3.72 50.16,11.27 14.33,7.45 26.37,18.25 36.12,32.39l4.96 -38.03 46.53 0 0 298.94c0,26.08 -4.87,48.63 -14.71,67.45 -9.84,18.82 -24.08,33.35 -42.8,43.57 -18.82,10.13 -41.56,15.19 -68.5,15.19zm1.43 -161.17c16.62,0 30.48,-3.83 41.75,-11.37 11.18,-7.55 20.35,-18.25 27.71,-32.01l0 -139.39c-7.17,-12.9 -16.34,-23.12 -27.71,-30.67 -11.47,-7.54 -25.13,-11.37 -41.18,-11.37 -17.58,0 -32.1,5.07 -43.85,15.1 -11.66,10.13 -20.35,23.98 -26.18,41.56 -5.73,17.67 -8.6,38.02 -8.6,61.24l0 5.83c0,30.47 6.4,54.84 19.3,73.37 12.9,18.44 32.49,27.71 58.76,27.71zm116.17 -218.88l-21.59 -45.1 67.45 0 0 35.26 -45.86 9.84zm217.73 257.76l0 -35.25 45.67 -7.84 0 -321.1 -45.67 -7.84 0 -35.25 181.72 0c29.61,0 54.64,4.49 75.09,13.28 20.44,8.88 36.02,21.78 46.62,38.5 10.61,16.82 15.96,37.36 15.96,61.62 0,23.89 -5.16,43.95 -15.48,60.19 -10.41,16.24 -25.13,28.47 -44.14,36.79 -19.01,8.31 -41.56,12.7 -67.74,13.28l-91.23 1.72 0 138.81 45.66 7.84 0 35.25 -146.46 0zm269.04 0l-90.67 -203.5 55.13 -0.57 75.28 162.89 28.28 5.07 0 36.11 -68.02 0zm-168.24 -225.28l75.28 0c30.76,0 53.21,-5.92 67.16,-17.67 14.05,-11.76 21.02,-28.95 21.02,-51.5 0,-21.5 -6.69,-38.41 -20.16,-50.92 -13.47,-12.52 -34.2,-18.82 -62.38,-18.82l-80.92 0 0 138.91zm421.79 231.2c-27.99,-0.09 -52.07,-6.59 -72.32,-19.77 -20.25,-13.19 -35.83,-31.34 -46.91,-54.56 -10.99,-23.21 -16.43,-49.77 -16.43,-79.67l0 -6.12c0,-29.9 5.44,-56.46 16.43,-79.68 11.08,-23.21 26.66,-41.46 46.91,-54.74 20.25,-13.19 44.14,-19.87 71.85,-19.87 27.99,0 52.06,6.68 72.32,19.87 20.25,13.28 35.82,31.53 46.91,54.65 10.98,23.12 16.52,49.68 16.52,79.77l0 6.12c0,30.09 -5.54,56.65 -16.52,79.96 -11.09,23.22 -26.66,41.37 -46.82,54.36 -20.16,13.09 -44.14,19.59 -71.94,19.68zm0 -43.18c17.58,0 32.29,-4.78 44.14,-14.43 11.85,-9.55 20.83,-22.73 26.85,-39.45 6.11,-16.63 9.07,-35.64 9.07,-56.94l0 -6.12c0,-21.3 -2.96,-40.32 -9.07,-56.94 -6.02,-16.72 -15.1,-29.9 -27.04,-39.55 -11.94,-9.56 -26.75,-14.33 -44.42,-14.33 -17.58,0 -32.3,4.77 -44.24,14.33 -11.94,9.65 -20.92,22.83 -26.94,39.55 -5.92,16.62 -8.89,35.64 -8.89,56.94l0 6.12c0,21.3 2.97,40.31 8.89,56.94 6.02,16.72 15,29.9 27.04,39.45 12.03,9.65 26.94,14.43 44.61,14.43zm324.45 43.18c-27.99,-0.09 -52.07,-6.59 -72.32,-19.77 -20.25,-13.19 -35.83,-31.34 -46.91,-54.56 -10.99,-23.21 -16.43,-49.77 -16.43,-79.67l0 -6.12c0,-29.9 5.44,-56.46 16.43,-79.68 11.08,-23.21 26.66,-41.46 46.91,-54.74 20.25,-13.19 44.14,-19.87 71.85,-19.87 27.99,0 52.06,6.68 72.32,19.87 20.25,13.28 35.82,31.53 46.91,54.65 10.98,23.12 16.52,49.68 16.52,79.77l0 6.12c0,30.09 -5.54,56.65 -16.52,79.96 -11.09,23.22 -26.66,41.37 -46.82,54.36 -20.16,13.09 -44.14,19.59 -71.94,19.68zm0 -43.18c17.58,0 32.29,-4.78 44.14,-14.43 11.85,-9.55 20.83,-22.73 26.85,-39.45 6.11,-16.63 9.07,-35.64 9.07,-56.94l0 -6.12c0,-21.3 -2.96,-40.32 -9.07,-56.94 -6.02,-16.72 -15.1,-29.9 -27.04,-39.55 -11.94,-9.56 -26.75,-14.33 -44.42,-14.33 -17.58,0 -32.3,4.77 -44.24,14.33 -11.94,9.65 -20.92,22.83 -26.94,39.55 -5.92,16.62 -8.89,35.64 -8.89,56.94l0 6.12c0,21.3 2.97,40.31 8.89,56.94 6.02,16.72 15,29.9 27.04,39.45 12.03,9.65 26.94,14.43 44.61,14.43zm177.8 37.26l0 -35.25 45.57 -7.84 0 -216.39 -45.57 -7.84 0 -35.54 95.16 0 3.63 39.46c9.74,-14.33 22.16,-25.41 37.55,-33.34 15.28,-7.84 32.96,-11.75 53.11,-11.75 20.16,0 37.46,4.68 51.98,14.04 14.42,9.36 25.31,23.31 32.58,41.94 9.55,-17.1 22.07,-30.76 37.73,-40.79 15.77,-10.13 34.02,-15.19 54.94,-15.19 30.95,0 55.41,10.6 73.28,31.81 17.96,21.21 26.94,53.02 26.94,95.54l0 138.05 45.57 7.84 0 35.25 -146.65 0 0 -35.25 45.57 -7.84 0 -138.53c0,-29.9 -5.06,-51.02 -15.38,-63.44 -10.22,-12.42 -25.41,-18.63 -45.57,-18.63 -19.21,0 -34.68,6.79 -46.34,20.35 -11.66,13.47 -18.44,30.48 -20.25,51.02l0 149.23 45.57 7.84 0 35.25 -146.37 0 0 -35.25 45.58 -7.84 0 -138.53c0,-28.37 -5.26,-49.2 -15.77,-62.29 -10.51,-13.18 -25.79,-19.78 -45.76,-19.78 -16.82,0 -30.67,3.44 -41.47,10.42 -10.79,6.88 -19.1,16.53 -24.84,29.04l0 181.14 45.58 7.84 0 35.25 -146.37 0z"/>
   <path class="fil0" d="M619.5 12922.83l615.8 0 0 270.61c0,44.12 -36.03,80.2 -80.07,80.2l-455.66 0c-44.04,0 -80.07,-36.08 -80.07,-80.2l0 -270.61zm-397.41 -944.95l1410.63 0c73.4,0 133.45,60.15 133.45,133.66l0 677.62c0,73.52 -60.05,133.66 -133.45,133.66l-1410.63 0c-73.4,0 -133.45,-60.14 -133.45,-133.66l0 -677.62c0,-73.51 60.05,-133.66 133.45,-133.66z"/>
   <path class="fil0" d="M2066.81 11977.88l1410.62 0c73.4,0 133.45,60.15 133.45,133.66l0 677.62c0,73.52 -60.05,133.66 -133.45,133.66l-1410.62 0c-73.4,0 -133.46,-60.14 -133.46,-133.66l0 -677.62c0,-73.51 60.06,-133.66 133.46,-133.66zm397.4 944.95l615.81 0 0 270.61c0,44.12 -36.04,80.2 -80.07,80.2l-455.67 0c-44.04,0 -80.07,-36.08 -80.07,-80.2l0 -270.61z"/>
   <path class="fil0" d="M5037.6 12922.83l615.81 0 0 270.61c0,44.12 -36.04,80.2 -80.07,80.2l-455.67 0c-44.04,0 -80.07,-36.08 -80.07,-80.2l0 -270.61zm-397.4 -944.95l1410.62 0c73.4,0 133.45,60.15 133.45,133.66l0 677.62c0,73.52 -60.05,133.66 -133.45,133.66l-1410.62 0c-73.4,0 -133.46,-60.14 -133.46,-133.66l0 -677.62c0,-73.51 60.06,-133.66 133.46,-133.66z"/>
   <path class="fil0" d="M6484.91 11977.88l1410.62 0c73.4,0 133.45,60.15 133.45,133.66l0 677.62c0,73.52 -60.05,133.66 -133.45,133.66l-1410.62 0c-73.4,0 -133.46,-60.14 -133.46,-133.66l0 -677.62c0,-73.51 60.06,-133.66 133.46,-133.66zm397.4 944.95l615.81 0 0 270.61c0,44.12 -36.04,80.2 -80.07,80.2l-455.67 0c-44.04,0 -80.07,-36.08 -80.07,-80.2l0 -270.61z"/>
   <path class="fil0" d="M8763.39 11977.88l1410.62 0c73.4,0 133.45,60.15 133.45,133.66l0 677.62c0,73.52 -60.05,133.66 -133.45,133.66l-1410.62 0c-73.41,0 -133.46,-60.14 -133.46,-133.66l0 -677.62c0,-73.51 60.05,-133.66 133.46,-133.66zm397.4 944.95l615.8 0 0 270.61c0,44.12 -36.03,80.2 -80.07,80.2l-455.66 0c-44.04,0 -80.07,-36.08 -80.07,-80.2l0 -270.61z"/>
   <path class="fil0" d="M1235.3 10910.15l0 -270.62c0,-44.12 -36.03,-80.19 -80.07,-80.19l-455.66 0c-44.04,0 -80.07,36.07 -80.07,80.19l0 270.62 -397.41 0c-73.4,0 -133.45,60.14 -133.45,133.66l0 677.62c0,73.51 60.05,133.66 133.45,133.66l1410.63 0c73.4,0 133.45,-60.15 133.45,-133.66l0 -677.62c0,-73.52 -60.05,-133.66 -133.45,-133.66l-397.42 0z"/>
   <path class="fil0" d="M3080.02 10910.15l0 -270.62c0,-44.12 -36.04,-80.19 -80.07,-80.19l-455.67 0c-44.04,0 -80.07,36.07 -80.07,80.19l0 270.62 -397.4 0c-73.4,0 -133.46,60.14 -133.46,133.66l0 677.62c0,73.51 60.06,133.66 133.46,133.66l1410.62 0c73.4,0 133.45,-60.15 133.45,-133.66l0 -677.62c0,-73.52 -60.05,-133.66 -133.45,-133.66l-397.41 0z"/>
   <path class="fil0" d="M5653.41 10910.15l0 -270.62c0,-44.12 -36.04,-80.19 -80.07,-80.19l-455.67 0c-44.04,0 -80.07,36.07 -80.07,80.19l0 270.62 -397.4 0c-73.4,0 -133.46,60.14 -133.46,133.66l0 677.62c0,73.51 60.06,133.66 133.46,133.66l1410.62 0c73.4,0 133.45,-60.15 133.45,-133.66l0 -677.62c0,-73.52 -60.05,-133.66 -133.45,-133.66l-397.41 0z"/>
   <path class="fil0" d="M7498.12 10910.15l0 -270.62c0,-44.12 -36.04,-80.19 -80.07,-80.19l-455.67 0c-44.04,0 -80.07,36.07 -80.07,80.19l0 270.62 -397.4 0c-73.4,0 -133.46,60.14 -133.46,133.66l0 677.62c0,73.51 60.06,133.66 133.46,133.66l1410.62 0c73.4,0 133.45,-60.15 133.45,-133.66l0 -677.62c0,-73.52 -60.05,-133.66 -133.45,-133.66l-397.41 0z"/>
   <path class="fil0" d="M8763.39 11855.09l1410.62 0c73.4,0 133.45,-60.15 133.45,-133.66l0 -677.62c0,-73.52 -60.05,-133.66 -133.45,-133.66l-397.42 0 0 -270.62c0,-44.12 -36.03,-80.19 -80.07,-80.19l-455.66 0c-44.04,0 -80.07,36.07 -80.07,80.19l0 270.62 -397.4 0c-73.41,0 -133.46,60.14 -133.46,133.66l0 677.62c0,73.51 60.05,133.66 133.46,133.66z"/>
   <path class="fil0" d="M10608.1 11977.88l1410.62 0c73.4,0 133.44,60.15 133.44,133.66l0 677.62c0,73.52 -60.04,133.66 -133.44,133.66l-1410.62 0c-73.4,0 -133.46,-60.14 -133.46,-133.66l0 -677.62c0,-73.51 60.06,-133.66 133.46,-133.66zm397.4 944.95l615.81 0 0 270.61c0,44.12 -36.04,80.2 -80.07,80.2l-455.67 0c-44.04,0 -80.07,-36.08 -80.07,-80.2l0 -270.61z"/>
   <path class="fil0" d="M10608.1 11855.09l1410.62 0c73.4,0 133.44,-60.15 133.44,-133.66l0 -677.62c0,-73.52 -60.04,-133.66 -133.44,-133.66l-397.41 0 0 -270.62c0,-44.12 -36.04,-80.19 -80.07,-80.19l-455.67 0c-44.04,0 -80.07,36.07 -80.07,80.19l0 270.62 -397.4 0c-73.4,0 -133.46,60.14 -133.46,133.66l0 677.62c0,73.51 60.06,133.66 133.46,133.66z"/>
  </g>
 </g>
</svg>
