<?xml version="1.0" encoding="UTF-8"?>
<!DOCTYPE svg PUBLIC "-//W3C//DTD SVG 1.1//EN" "http://www.w3.org/Graphics/SVG/1.1/DTD/svg11.dtd">
<!-- Creator: CorelDRAW 2020 -->
<svg xmlns="http://www.w3.org/2000/svg" xml:space="preserve" width="210mm" height="297mm" version="1.1" style="shape-rendering:geometricPrecision; text-rendering:geometricPrecision; image-rendering:optimizeQuality; fill-rule:evenodd; clip-rule:evenodd"
viewBox="0 0 21000 29700"
 xmlns:xlink="http://www.w3.org/1999/xlink"
 xmlns:xodm="http://www.corel.com/coreldraw/odm/2003">
 <defs>
  <style type="text/css">
   <![CDATA[
    .str0 {stroke:#606062;stroke-width:35.28;stroke-miterlimit:22.9256}
    .fil0 {fill:none}
    .fil1 {fill:#A9ABAE}
   ]]>
  </style>
 </defs>
 <g id="Capa_x0020_1">
  <metadata id="CorelCorpID_0Corel-Layer"/>
  <rect class="fil0 str0" x="4031.02" y="10135.65" width="12923.67" height="9429.76" rx="298.78" ry="459.5"/>
  <rect class="fil1" x="4529.91" y="17878.46" width="1667.68" height="937.95" rx="111.91" ry="132.67"/>
  <path class="fil1" d="M5057.65 18816.42l612.19 0 0 268.61c0,43.79 -35.82,79.61 -79.6,79.61l-452.99 0c-43.78,0 -79.6,-35.82 -79.6,-79.61l0 -268.61z"/>
  <rect class="fil1" x="6363.79" y="17878.46" width="1667.68" height="937.95" rx="111.91" ry="132.67"/>
  <path class="fil1" d="M6891.53 18816.42l612.19 0 0 268.61c0,43.79 -35.82,79.61 -79.6,79.61l-452.99 0c-43.78,0 -79.6,-35.82 -79.6,-79.61l0 -268.61z"/>
  <rect class="fil1" x="8922.07" y="17878.46" width="1667.68" height="937.95" rx="111.91" ry="132.67"/>
  <path class="fil1" d="M9449.81 18816.42l612.19 0 0 268.61c0,43.79 -35.82,79.61 -79.6,79.61l-452.99 0c-43.78,0 -79.6,-35.82 -79.6,-79.61l0 -268.61z"/>
  <rect class="fil1" x="10755.95" y="17878.46" width="1667.68" height="937.95" rx="111.91" ry="132.67"/>
  <path class="fil1" d="M11283.69 18816.42l612.19 0 0 268.61c0,43.79 -35.82,79.61 -79.6,79.61l-452.99 0c-43.78,0 -79.6,-35.82 -79.6,-79.61l0 -268.61z"/>
  <rect class="fil1" x="13021.04" y="17878.46" width="1667.68" height="937.95" rx="111.91" ry="132.67"/>
  <path class="fil1" d="M13548.79 18816.42l612.19 0 0 268.61c0,43.79 -35.82,79.61 -79.6,79.61l-452.99 0c-43.78,0 -79.6,-35.82 -79.6,-79.61l0 -268.61z"/>
  <rect class="fil1" x="4529.91" y="16818.62" width="1667.68" height="937.95" rx="111.91" ry="132.67"/>
  <path class="fil1" d="M5057.65 16818.62l612.19 0 0 -268.62c0,-43.79 -35.82,-79.6 -79.6,-79.6l-452.99 0c-43.78,0 -79.6,35.81 -79.6,79.6l0 268.62z"/>
  <rect class="fil1" x="6363.79" y="16818.62" width="1667.68" height="937.95" rx="111.91" ry="132.67"/>
  <path class="fil1" d="M6891.53 16818.62l612.19 0 0 -268.62c0,-43.79 -35.82,-79.6 -79.6,-79.6l-452.99 0c-43.78,0 -79.6,35.81 -79.6,79.6l0 268.62z"/>
  <rect class="fil1" x="8922.07" y="16818.62" width="1667.68" height="937.95" rx="111.91" ry="132.67"/>
  <path class="fil1" d="M9449.81 16818.62l612.19 0 0 -268.62c0,-43.79 -35.82,-79.6 -79.6,-79.6l-452.99 0c-43.78,0 -79.6,35.81 -79.6,79.6l0 268.62z"/>
  <rect class="fil1" x="10755.95" y="16818.62" width="1667.68" height="937.95" rx="111.91" ry="132.67"/>
  <path class="fil1" d="M11283.69 16818.62l612.19 0 0 -268.62c0,-43.79 -35.82,-79.6 -79.6,-79.6l-452.99 0c-43.78,0 -79.6,35.81 -79.6,79.6l0 268.62z"/>
  <rect class="fil1" x="13021.04" y="16818.62" width="1667.68" height="937.95" rx="111.91" ry="132.67"/>
  <path class="fil1" d="M13548.79 16818.62l612.19 0 0 -268.62c0,-43.79 -35.82,-79.6 -79.6,-79.6l-452.99 0c-43.78,0 -79.6,35.81 -79.6,79.6l0 268.62z"/>
  <path class="fil1" d="M4570.03 14377.94l3421.31 0c165,0 300,-135 300,-300l0 -3446.02c0,-165 -135,-300 -300,-300l-3421.31 0c-165,0 -300,135 -300,300l0 3446.02c0,165 135,300 300,300zm293.38 -1913.76l0 -26.56 34.41 -5.9 0 -241.91 -34.41 -5.9 0 -26.78 34.41 0 55.42 0 98.89 233.06 1.3 0 95.72 -233.06 92.56 0 0 26.78 -34.33 5.9 0 241.91 34.33 5.9 0 26.56 -110.26 0 0 -26.56 36.27 -5.9 0 -89.03 0 -128.84 -1.08 -0.14 -99.68 239.53 -27.64 0 -103.14 -239.17 -1.01 0.21 1.44 128.41 0 89.03 37.14 5.9 0 26.56 -110.34 0zm517.72 4.46c-21.09,-0.07 -39.44,-4.82 -55.06,-14.46 -15.55,-9.65 -27.64,-23.04 -36.13,-40.17 -8.49,-17.2 -12.74,-36.99 -12.74,-59.45l0 -9.28c0,-21.67 4.46,-41.03 13.39,-58.09 8.92,-17.13 20.8,-30.59 35.62,-40.52 14.83,-9.93 31.02,-14.9 48.59,-14.9 20.51,0 37.71,4.25 51.6,12.67 13.82,8.42 24.26,20.3 31.31,35.56 6.98,15.25 10.51,33.18 10.51,53.83l0 25.99 -147.98 0 -0.65 1c0.29,14.69 2.81,27.64 7.7,38.94 4.83,11.3 11.81,20.23 20.95,26.71 9.14,6.4 20.08,9.64 32.89,9.64 14.04,0 26.42,-1.94 37,-5.97 10.65,-4.03 19.79,-9.58 27.56,-16.56l16.2 26.99c-8.14,7.85 -18.93,14.54 -32.39,19.94 -13.39,5.4 -29.51,8.06 -48.37,8.13zm-59.67 -141.28l105.23 0 0 -5.55c0,-10.94 -1.94,-20.73 -5.83,-29.36 -3.81,-8.64 -9.57,-15.48 -17.27,-20.44 -7.63,-5.04 -17.28,-7.49 -28.79,-7.49 -9.29,0 -17.71,2.66 -25.27,8.06 -7.63,5.47 -13.89,12.81 -18.78,22.03 -4.9,9.28 -8.14,19.86 -9.72,31.67l0.43 1.08zm289.27 141.28c-21.09,-0.07 -39.44,-4.82 -55.06,-14.46 -15.55,-9.65 -27.64,-23.04 -36.13,-40.17 -8.49,-17.2 -12.74,-36.99 -12.74,-59.45l0 -9.28c0,-21.67 4.46,-41.03 13.39,-58.09 8.92,-17.13 20.8,-30.59 35.62,-40.52 14.83,-9.93 31.02,-14.9 48.59,-14.9 20.51,0 37.71,4.25 51.6,12.67 13.82,8.42 24.26,20.3 31.31,35.56 6.98,15.25 10.51,33.18 10.51,53.83l0 25.99 -147.98 0 -0.65 1c0.29,14.69 2.81,27.64 7.7,38.94 4.83,11.3 11.81,20.23 20.95,26.71 9.14,6.4 20.08,9.64 32.89,9.64 14.04,0 26.42,-1.94 37,-5.97 10.65,-4.03 19.79,-9.58 27.56,-16.56l16.2 26.99c-8.14,7.85 -18.93,14.54 -32.39,19.94 -13.39,5.4 -29.51,8.06 -48.37,8.13zm-59.67 -141.28l105.23 0 0 -5.55c0,-10.94 -1.94,-20.73 -5.83,-29.36 -3.81,-8.64 -9.57,-15.48 -17.27,-20.44 -7.63,-5.04 -17.28,-7.49 -28.79,-7.49 -9.29,0 -17.71,2.66 -25.27,8.06 -7.63,5.47 -13.89,12.81 -18.78,22.03 -4.9,9.28 -8.14,19.86 -9.72,31.67l0.43 1.08zm259.62 140.42c-16.84,0 -30.23,-4.97 -40.16,-14.9 -9.94,-9.86 -14.9,-25.77 -14.9,-47.5l0 -138.56 -36.06 0 0 -30.8 36.06 0 0 -55.06 41.53 0 0 55.06 49.59 0 0 30.8 -49.59 0 0 138.56c0,10.94 2.23,19 6.55,24.25 4.39,5.18 10.22,7.78 17.49,7.78 4.96,0 10.43,-0.44 16.48,-1.37 6.05,-0.94 10.72,-1.73 14.11,-2.45l5.68 27.21c-6.04,1.8 -13.46,3.45 -22.24,4.82 -8.78,1.44 -16.98,2.16 -24.54,2.16zm71.9 -3.6l0 -26.56 34.4 -5.9 0 -163.02 -34.4 -5.91 0 -26.77 75.93 0 0 195.7 34.4 5.9 0 26.56 -110.33 0zm32.31 -284.45l0 -44.48 43.69 0 0 44.48 -43.69 0zm106.67 284.45l0 -26.56 34.33 -5.9 0 -163.02 -34.33 -5.91 0 -26.77 71.47 0 2.95 33.97c7.56,-12.09 17.13,-21.52 28.57,-28.14 11.45,-6.69 24.48,-10.08 39.09,-10.08 24.61,0 43.69,7.27 57.15,21.67 13.53,14.39 20.29,36.63 20.29,66.72l0 111.56 34.33 5.9 0 26.56 -110.26 0 0 -26.56 34.4 -5.9 0 -110.7c0,-20.15 -4.03,-34.4 -11.95,-42.82 -7.91,-8.42 -20.08,-12.67 -36.34,-12.67 -11.95,0 -22.53,2.88 -31.74,8.64 -9.22,5.75 -16.56,13.67 -22.03,23.6l0 133.95 34.33 5.9 0 26.56 -110.26 0zm381.18 92.13c-10.94,0 -22.82,-1.51 -35.63,-4.54 -12.74,-3.02 -24.04,-7.12 -33.69,-12.3l10.73 -32.25c7.7,4.03 16.84,7.41 27.42,10.08 10.51,2.66 20.8,4.03 30.81,4.03 18.49,0 32.1,-5.18 40.73,-15.62 8.71,-10.36 13.03,-25.19 13.03,-44.48l0 -21.74c-7.48,9.58 -16.41,16.84 -26.77,21.74 -10.44,4.89 -22.39,7.34 -35.92,7.41 -18.5,-0.07 -34.55,-4.6 -48.01,-13.82 -13.53,-9.21 -23.89,-22.09 -31.16,-38.65 -7.2,-16.48 -10.8,-35.62 -10.8,-57.43l0 -4.39c0,-24.48 3.6,-45.92 10.8,-64.35 7.27,-18.43 17.63,-32.75 31.16,-42.9 13.46,-10.22 29.66,-15.33 48.44,-15.33 14.4,0 26.92,2.81 37.79,8.5 10.8,5.61 19.86,13.74 27.21,24.4l3.74 -28.65 35.05 0 0 225.21c0,19.65 -3.67,36.63 -11.08,50.81 -7.42,14.18 -18.14,25.12 -32.25,32.82 -14.18,7.63 -31.31,11.45 -51.6,11.45zm1.08 -121.42c12.52,0 22.96,-2.88 31.45,-8.57 8.42,-5.68 15.33,-13.75 20.87,-24.11l0 -105.01c-5.4,-9.72 -12.31,-17.42 -20.87,-23.11 -8.64,-5.68 -18.93,-8.56 -31.02,-8.56 -13.25,0 -24.19,3.81 -33.04,11.37 -8.78,7.63 -15.33,18.07 -19.72,31.31 -4.32,13.32 -6.48,28.65 -6.48,46.14l0 4.39c0,22.96 4.82,41.31 14.54,55.27 9.72,13.89 24.47,20.88 44.27,20.88zm87.52 -164.9l-16.27 -33.97 50.82 0 0 26.56 -34.55 7.41zm164.03 194.19l0 -26.56 34.4 -5.9 0 -241.91 -34.4 -5.9 0 -26.56 136.89 0c22.32,0 41.17,3.38 56.58,10.01 15.4,6.69 27.13,16.41 35.12,29 7.99,12.67 12.02,28.14 12.02,46.42 0,18 -3.89,33.11 -11.66,45.35 -7.84,12.23 -18.93,21.45 -33.25,27.71 -14.32,6.26 -31.31,9.57 -51.03,10l-68.74 1.3 0 104.58 34.41 5.9 0 26.56 -110.34 0zm202.68 0l-68.3 -153.31 41.52 -0.43 56.72 122.72 21.31 3.81 0 27.21 -51.25 0zm-126.75 -169.72l56.72 0c23.17,0 40.09,-4.46 50.6,-13.31 10.58,-8.86 15.83,-21.81 15.83,-38.8 0,-16.19 -5.04,-28.93 -15.19,-38.36 -10.14,-9.43 -25.76,-14.18 -47,-14.18l-60.96 0 0 104.65zm317.77 174.18c-21.09,-0.07 -39.23,-4.96 -54.49,-14.9 -15.26,-9.93 -26.99,-23.6 -35.34,-41.09 -8.28,-17.49 -12.38,-37.5 -12.38,-60.03l0 -4.61c0,-22.53 4.1,-42.53 12.38,-60.02 8.35,-17.49 20.08,-31.24 35.34,-41.25 15.26,-9.93 33.25,-14.97 54.13,-14.97 21.09,0 39.22,5.04 54.48,14.97 15.26,10.01 26.99,23.76 35.34,41.17 8.28,17.42 12.45,37.43 12.45,60.1l0 4.61c0,22.67 -4.17,42.68 -12.45,60.24 -8.35,17.49 -20.08,31.17 -35.27,40.96 -15.18,9.86 -33.25,14.75 -54.19,14.82zm0 -32.53c13.24,0 24.32,-3.6 33.25,-10.87 8.92,-7.2 15.69,-17.13 20.22,-29.72 4.61,-12.53 6.84,-26.85 6.84,-42.9l0 -4.61c0,-16.05 -2.23,-30.37 -6.84,-42.89 -4.53,-12.6 -11.37,-22.53 -20.36,-29.8 -9,-7.2 -20.16,-10.8 -33.47,-10.8 -13.25,0 -24.33,3.6 -33.33,10.8 -8.99,7.27 -15.76,17.2 -20.29,29.8 -4.47,12.52 -6.7,26.84 -6.7,42.89l0 4.61c0,16.05 2.23,30.37 6.7,42.9 4.53,12.59 11.3,22.52 20.36,29.72 9.07,7.27 20.3,10.87 33.62,10.87zm244.43 32.53c-21.09,-0.07 -39.23,-4.96 -54.49,-14.9 -15.26,-9.93 -26.99,-23.6 -35.34,-41.09 -8.28,-17.49 -12.38,-37.5 -12.38,-60.03l0 -4.61c0,-22.53 4.1,-42.53 12.38,-60.02 8.35,-17.49 20.08,-31.24 35.34,-41.25 15.26,-9.93 33.25,-14.97 54.13,-14.97 21.09,0 39.22,5.04 54.48,14.97 15.26,10.01 26.99,23.76 35.34,41.17 8.28,17.42 12.45,37.43 12.45,60.1l0 4.61c0,22.67 -4.17,42.68 -12.45,60.24 -8.35,17.49 -20.08,31.17 -35.27,40.96 -15.18,9.86 -33.25,14.75 -54.19,14.82zm0 -32.53c13.24,0 24.32,-3.6 33.25,-10.87 8.92,-7.2 15.69,-17.13 20.22,-29.72 4.61,-12.53 6.84,-26.85 6.84,-42.9l0 -4.61c0,-16.05 -2.23,-30.37 -6.84,-42.89 -4.53,-12.6 -11.37,-22.53 -20.36,-29.8 -9,-7.2 -20.16,-10.8 -33.47,-10.8 -13.25,0 -24.33,3.6 -33.33,10.8 -8.99,7.27 -15.76,17.2 -20.29,29.8 -4.47,12.52 -6.7,26.84 -6.7,42.89l0 4.61c0,16.05 2.23,30.37 6.7,42.9 4.53,12.59 11.3,22.52 20.36,29.72 9.07,7.27 20.3,10.87 33.62,10.87zm133.94 28.07l0 -26.56 34.33 -5.9 0 -163.02 -34.33 -5.91 0 -26.77 71.69 0 2.73 29.72c7.34,-10.79 16.7,-19.14 28.29,-25.11 11.51,-5.91 24.83,-8.86 40.02,-8.86 15.18,0 28.21,3.53 39.15,10.58 10.87,7.06 19.07,17.56 24.54,31.6 7.2,-12.88 16.63,-23.18 28.43,-30.73 11.88,-7.63 25.63,-11.45 41.39,-11.45 23.32,0 41.74,7.99 55.2,23.97 13.53,15.98 20.3,39.95 20.3,71.98l0 104 34.33 5.9 0 26.56 -110.48 0 0 -26.56 34.33 -5.9 0 -104.36c0,-22.53 -3.81,-38.44 -11.59,-47.8 -7.7,-9.35 -19.14,-14.03 -34.33,-14.03 -14.46,0 -26.12,5.11 -34.9,15.33 -8.79,10.15 -13.9,22.96 -15.26,38.43l0 112.43 34.33 5.9 0 26.56 -110.27 0 0 -26.56 34.33 -5.9 0 -104.36c0,-21.38 -3.95,-37.07 -11.87,-46.93 -7.92,-9.93 -19.43,-14.9 -34.48,-14.9 -12.66,0 -23.1,2.59 -31.23,7.84 -8.14,5.19 -14.4,12.46 -18.72,21.88l0 136.47 34.33 5.9 0 26.56 -110.26 0zm-1154.8 582.86l0 -26.56 47.5 -5.9 0 -230.03 -48.29 0.79 0 -25.91 89.82 -19.44 0 274.59 47.22 5.9 0 26.56 -136.25 0z"/>
  <path class="fil1" d="M8782.2 14377.94l3421.33 0c165,0 299.99,-135 299.99,-299.99l0 -3446.03c0,-165.01 -134.99,-300 -299.99,-300l-3421.33 0c-165,0 -299.99,134.99 -299.99,300l0 3446.03c0,164.99 134.99,299.99 299.99,299.99zm297.89 -1913.76l0 -26.56 34.41 -5.9 0 -241.91 -34.41 -5.9 0 -26.78 34.41 0 55.42 0 98.89 233.06 1.3 0 95.72 -233.06 92.56 0 0 26.78 -34.33 5.9 0 241.91 34.33 5.9 0 26.56 -110.26 0 0 -26.56 36.27 -5.9 0 -89.03 0 -128.84 -1.08 -0.14 -99.68 239.53 -27.64 0 -103.14 -239.17 -1.01 0.21 1.44 128.41 0 89.03 37.14 5.9 0 26.56 -110.34 0zm517.72 4.46c-21.09,-0.07 -39.44,-4.82 -55.06,-14.46 -15.55,-9.65 -27.64,-23.04 -36.13,-40.17 -8.49,-17.2 -12.74,-36.99 -12.74,-59.45l0 -9.28c0,-21.67 4.46,-41.03 13.39,-58.09 8.92,-17.13 20.8,-30.59 35.62,-40.52 14.83,-9.93 31.02,-14.9 48.59,-14.9 20.51,0 37.71,4.25 51.6,12.67 13.82,8.42 24.26,20.3 31.31,35.56 6.98,15.25 10.51,33.18 10.51,53.83l0 25.99 -147.98 0 -0.65 1c0.29,14.69 2.81,27.64 7.7,38.94 4.83,11.3 11.81,20.23 20.95,26.71 9.14,6.4 20.08,9.64 32.89,9.64 14.04,0 26.42,-1.94 37,-5.97 10.65,-4.03 19.79,-9.58 27.56,-16.56l16.2 26.99c-8.14,7.85 -18.93,14.54 -32.39,19.94 -13.39,5.4 -29.51,8.06 -48.37,8.13zm-59.67 -141.28l105.23 0 0 -5.55c0,-10.94 -1.94,-20.73 -5.83,-29.36 -3.81,-8.64 -9.57,-15.48 -17.27,-20.44 -7.63,-5.04 -17.28,-7.49 -28.79,-7.49 -9.29,0 -17.71,2.66 -25.27,8.06 -7.63,5.47 -13.89,12.81 -18.78,22.03 -4.9,9.28 -8.14,19.86 -9.72,31.67l0.43 1.08zm289.27 141.28c-21.09,-0.07 -39.44,-4.82 -55.06,-14.46 -15.55,-9.65 -27.64,-23.04 -36.13,-40.17 -8.49,-17.2 -12.74,-36.99 -12.74,-59.45l0 -9.28c0,-21.67 4.46,-41.03 13.39,-58.09 8.92,-17.13 20.8,-30.59 35.62,-40.52 14.83,-9.93 31.02,-14.9 48.59,-14.9 20.51,0 37.71,4.25 51.6,12.67 13.82,8.42 24.26,20.3 31.31,35.56 6.98,15.25 10.51,33.18 10.51,53.83l0 25.99 -147.98 0 -0.65 1c0.29,14.69 2.81,27.64 7.7,38.94 4.83,11.3 11.81,20.23 20.95,26.71 9.14,6.4 20.08,9.64 32.89,9.64 14.04,0 26.42,-1.94 37,-5.97 10.65,-4.03 19.79,-9.58 27.56,-16.56l16.2 26.99c-8.14,7.85 -18.93,14.54 -32.39,19.94 -13.39,5.4 -29.51,8.06 -48.37,8.13zm-59.67 -141.28l105.23 0 0 -5.55c0,-10.94 -1.94,-20.73 -5.83,-29.36 -3.81,-8.64 -9.57,-15.48 -17.27,-20.44 -7.63,-5.04 -17.28,-7.49 -28.79,-7.49 -9.29,0 -17.71,2.66 -25.27,8.06 -7.63,5.47 -13.89,12.81 -18.78,22.03 -4.9,9.28 -8.14,19.86 -9.72,31.67l0.43 1.08zm259.62 140.42c-16.84,0 -30.23,-4.97 -40.16,-14.9 -9.94,-9.86 -14.9,-25.77 -14.9,-47.5l0 -138.56 -36.06 0 0 -30.8 36.06 0 0 -55.06 41.53 0 0 55.06 49.59 0 0 30.8 -49.59 0 0 138.56c0,10.94 2.23,19 6.55,24.25 4.39,5.18 10.22,7.78 17.49,7.78 4.96,0 10.43,-0.44 16.48,-1.37 6.05,-0.94 10.72,-1.73 14.11,-2.45l5.68 27.21c-6.04,1.8 -13.46,3.45 -22.24,4.82 -8.78,1.44 -16.98,2.16 -24.54,2.16zm71.9 -3.6l0 -26.56 34.4 -5.9 0 -163.02 -34.4 -5.91 0 -26.77 75.93 0 0 195.7 34.4 5.9 0 26.56 -110.33 0zm32.31 -284.45l0 -44.48 43.69 0 0 44.48 -43.69 0zm106.67 284.45l0 -26.56 34.33 -5.9 0 -163.02 -34.33 -5.91 0 -26.77 71.47 0 2.95 33.97c7.56,-12.09 17.13,-21.52 28.57,-28.14 11.45,-6.69 24.48,-10.08 39.09,-10.08 24.61,0 43.69,7.27 57.15,21.67 13.53,14.39 20.29,36.63 20.29,66.72l0 111.56 34.33 5.9 0 26.56 -110.26 0 0 -26.56 34.4 -5.9 0 -110.7c0,-20.15 -4.03,-34.4 -11.95,-42.82 -7.91,-8.42 -20.08,-12.67 -36.34,-12.67 -11.95,0 -22.53,2.88 -31.74,8.64 -9.22,5.75 -16.56,13.67 -22.03,23.6l0 133.95 34.33 5.9 0 26.56 -110.26 0zm381.18 92.13c-10.94,0 -22.82,-1.51 -35.63,-4.54 -12.74,-3.02 -24.04,-7.12 -33.69,-12.3l10.73 -32.25c7.7,4.03 16.84,7.41 27.42,10.08 10.51,2.66 20.8,4.03 30.81,4.03 18.49,0 32.1,-5.18 40.73,-15.62 8.71,-10.36 13.03,-25.19 13.03,-44.48l0 -21.74c-7.48,9.58 -16.41,16.84 -26.77,21.74 -10.44,4.89 -22.39,7.34 -35.92,7.41 -18.5,-0.07 -34.55,-4.6 -48.01,-13.82 -13.53,-9.21 -23.89,-22.09 -31.16,-38.65 -7.2,-16.48 -10.8,-35.62 -10.8,-57.43l0 -4.39c0,-24.48 3.6,-45.92 10.8,-64.35 7.27,-18.43 17.63,-32.75 31.16,-42.9 13.46,-10.22 29.66,-15.33 48.44,-15.33 14.4,0 26.92,2.81 37.79,8.5 10.8,5.61 19.86,13.74 27.21,24.4l3.74 -28.65 35.05 0 0 225.21c0,19.65 -3.67,36.63 -11.08,50.81 -7.42,14.18 -18.14,25.12 -32.25,32.82 -14.18,7.63 -31.31,11.45 -51.6,11.45zm1.08 -121.42c12.52,0 22.96,-2.88 31.45,-8.57 8.42,-5.68 15.33,-13.75 20.87,-24.11l0 -105.01c-5.4,-9.72 -12.31,-17.42 -20.87,-23.11 -8.64,-5.68 -18.93,-8.56 -31.02,-8.56 -13.25,0 -24.19,3.81 -33.04,11.37 -8.78,7.63 -15.33,18.07 -19.72,31.31 -4.32,13.32 -6.48,28.65 -6.48,46.14l0 4.39c0,22.96 4.82,41.31 14.54,55.27 9.72,13.89 24.47,20.88 44.27,20.88zm87.52 -164.9l-16.27 -33.97 50.82 0 0 26.56 -34.55 7.41zm164.03 194.19l0 -26.56 34.4 -5.9 0 -241.91 -34.4 -5.9 0 -26.56 136.89 0c22.32,0 41.17,3.38 56.58,10.01 15.4,6.69 27.13,16.41 35.12,29 7.99,12.67 12.02,28.14 12.02,46.42 0,18 -3.89,33.11 -11.66,45.35 -7.84,12.23 -18.93,21.45 -33.25,27.71 -14.32,6.26 -31.31,9.57 -51.03,10l-68.74 1.3 0 104.58 34.41 5.9 0 26.56 -110.34 0zm202.68 0l-68.3 -153.31 41.52 -0.43 56.72 122.72 21.31 3.81 0 27.21 -51.25 0zm-126.75 -169.72l56.72 0c23.17,0 40.09,-4.46 50.6,-13.31 10.58,-8.86 15.83,-21.81 15.83,-38.8 0,-16.19 -5.04,-28.93 -15.19,-38.36 -10.14,-9.43 -25.76,-14.18 -47,-14.18l-60.96 0 0 104.65zm317.77 174.18c-21.09,-0.07 -39.23,-4.96 -54.49,-14.9 -15.26,-9.93 -26.99,-23.6 -35.34,-41.09 -8.28,-17.49 -12.38,-37.5 -12.38,-60.03l0 -4.61c0,-22.53 4.1,-42.53 12.38,-60.02 8.35,-17.49 20.08,-31.24 35.34,-41.25 15.26,-9.93 33.25,-14.97 54.13,-14.97 21.09,0 39.22,5.04 54.48,14.97 15.26,10.01 26.99,23.76 35.34,41.17 8.28,17.42 12.45,37.43 12.45,60.1l0 4.61c0,22.67 -4.17,42.68 -12.45,60.24 -8.35,17.49 -20.08,31.17 -35.27,40.96 -15.18,9.86 -33.25,14.75 -54.19,14.82zm0 -32.53c13.24,0 24.32,-3.6 33.25,-10.87 8.92,-7.2 15.69,-17.13 20.22,-29.72 4.61,-12.53 6.84,-26.85 6.84,-42.9l0 -4.61c0,-16.05 -2.23,-30.37 -6.84,-42.89 -4.53,-12.6 -11.37,-22.53 -20.36,-29.8 -9,-7.2 -20.16,-10.8 -33.47,-10.8 -13.25,0 -24.33,3.6 -33.33,10.8 -8.99,7.27 -15.76,17.2 -20.29,29.8 -4.47,12.52 -6.7,26.84 -6.7,42.89l0 4.61c0,16.05 2.23,30.37 6.7,42.9 4.53,12.59 11.3,22.52 20.36,29.72 9.07,7.27 20.3,10.87 33.62,10.87zm244.43 32.53c-21.09,-0.07 -39.23,-4.96 -54.49,-14.9 -15.26,-9.93 -26.99,-23.6 -35.34,-41.09 -8.28,-17.49 -12.38,-37.5 -12.38,-60.03l0 -4.61c0,-22.53 4.1,-42.53 12.38,-60.02 8.35,-17.49 20.08,-31.24 35.34,-41.25 15.26,-9.93 33.25,-14.97 54.13,-14.97 21.09,0 39.22,5.04 54.48,14.97 15.26,10.01 26.99,23.76 35.34,41.17 8.28,17.42 12.45,37.43 12.45,60.1l0 4.61c0,22.67 -4.17,42.68 -12.45,60.24 -8.35,17.49 -20.08,31.17 -35.27,40.96 -15.18,9.86 -33.25,14.75 -54.19,14.82zm0 -32.53c13.24,0 24.32,-3.6 33.25,-10.87 8.92,-7.2 15.69,-17.13 20.22,-29.72 4.61,-12.53 6.84,-26.85 6.84,-42.9l0 -4.61c0,-16.05 -2.23,-30.37 -6.84,-42.89 -4.53,-12.6 -11.37,-22.53 -20.36,-29.8 -9,-7.2 -20.16,-10.8 -33.47,-10.8 -13.25,0 -24.33,3.6 -33.33,10.8 -8.99,7.27 -15.76,17.2 -20.29,29.8 -4.47,12.52 -6.7,26.84 -6.7,42.89l0 4.61c0,16.05 2.23,30.37 6.7,42.9 4.53,12.59 11.3,22.52 20.36,29.72 9.07,7.27 20.3,10.87 33.62,10.87zm133.94 28.07l0 -26.56 34.33 -5.9 0 -163.02 -34.33 -5.91 0 -26.77 71.69 0 2.73 29.72c7.34,-10.79 16.7,-19.14 28.29,-25.11 11.51,-5.91 24.83,-8.86 40.02,-8.86 15.18,0 28.21,3.53 39.15,10.58 10.87,7.06 19.07,17.56 24.54,31.6 7.2,-12.88 16.63,-23.18 28.43,-30.73 11.88,-7.63 25.63,-11.45 41.39,-11.45 23.32,0 41.74,7.99 55.2,23.97 13.53,15.98 20.3,39.95 20.3,71.98l0 104 34.33 5.9 0 26.56 -110.48 0 0 -26.56 34.33 -5.9 0 -104.36c0,-22.53 -3.81,-38.44 -11.59,-47.8 -7.7,-9.35 -19.14,-14.03 -34.33,-14.03 -14.46,0 -26.12,5.11 -34.9,15.33 -8.79,10.15 -13.9,22.96 -15.26,38.43l0 112.43 34.33 5.9 0 26.56 -110.27 0 0 -26.56 34.33 -5.9 0 -104.36c0,-21.38 -3.95,-37.07 -11.87,-46.93 -7.92,-9.93 -19.43,-14.9 -34.48,-14.9 -12.66,0 -23.1,2.59 -31.23,7.84 -8.14,5.19 -14.4,12.46 -18.72,21.88l0 136.47 34.33 5.9 0 26.56 -110.26 0zm-1190.07 582.86l0 -28.5 100.62 -111.71c11.95,-13.38 21.31,-24.76 28,-34.26 6.77,-9.5 11.44,-18.14 14.18,-25.84 2.66,-7.77 3.96,-15.76 3.96,-24.04 0,-15.33 -4.61,-28.21 -13.89,-38.72 -9.29,-10.44 -22.6,-15.69 -39.88,-15.69 -17.99,0 -32.03,5.4 -42.03,16.27 -10.08,10.79 -15.12,26.12 -15.12,45.92l-39.8 0 -0.43 -1.23c-0.43,-17.7 3.31,-33.68 11.16,-47.79 7.84,-14.1 19.29,-25.33 34.26,-33.54 14.97,-8.2 32.82,-12.31 53.47,-12.31 19.37,0 36.06,3.67 50.1,11.09 13.96,7.34 24.76,17.42 32.32,30.23 7.62,12.81 11.37,27.49 11.37,44.05 0,11.3 -2.16,22.45 -6.62,33.54 -4.39,11.08 -10.87,22.53 -19.37,34.18 -8.56,11.66 -18.78,23.97 -30.73,36.86l-80.75 87.95 0.43 1.08 109.04 0 3.38 -35.2 35.2 0 0 67.66 -198.87 0z"/>
  <rect class="fil1" x="14854.92" y="17878.46" width="1667.68" height="937.95" rx="111.91" ry="132.67"/>
  <path class="fil1" d="M15382.67 18816.42l612.19 0 0 268.61c0,43.79 -35.82,79.61 -79.6,79.61l-452.99 0c-43.78,0 -79.6,-35.82 -79.6,-79.61l0 -268.61z"/>
  <rect class="fil1" x="14854.92" y="16818.62" width="1667.68" height="937.95" rx="111.91" ry="132.67"/>
  <path class="fil1" d="M15382.67 16818.62l612.19 0 0 -268.62c0,-43.79 -35.82,-79.6 -79.6,-79.6l-452.99 0c-43.78,0 -79.6,35.81 -79.6,79.6l0 268.62z"/>
  <path class="fil1" d="M12994.38 14377.94l3421.33 0c165,0 299.99,-135 299.99,-299.99l0 -3446.03c0,-165.01 -134.99,-300 -299.99,-300l-3421.33 0c-165,0 -299.99,134.99 -299.99,300l0 3446.03c0,164.99 134.99,299.99 299.99,299.99zm302.39 -1913.76l0 -26.56 34.41 -5.9 0 -241.91 -34.41 -5.9 0 -26.78 34.41 0 55.42 0 98.89 233.06 1.3 0 95.72 -233.06 92.56 0 0 26.78 -34.33 5.9 0 241.91 34.33 5.9 0 26.56 -110.26 0 0 -26.56 36.27 -5.9 0 -89.03 0 -128.84 -1.08 -0.14 -99.68 239.53 -27.64 0 -103.14 -239.17 -1.01 0.21 1.44 128.41 0 89.03 37.14 5.9 0 26.56 -110.34 0zm517.72 4.46c-21.09,-0.07 -39.44,-4.82 -55.06,-14.46 -15.55,-9.65 -27.64,-23.04 -36.13,-40.17 -8.49,-17.2 -12.74,-36.99 -12.74,-59.45l0 -9.28c0,-21.67 4.46,-41.03 13.39,-58.09 8.92,-17.13 20.8,-30.59 35.62,-40.52 14.83,-9.93 31.02,-14.9 48.59,-14.9 20.51,0 37.71,4.25 51.6,12.67 13.82,8.42 24.26,20.3 31.31,35.56 6.98,15.25 10.51,33.18 10.51,53.83l0 25.99 -147.98 0 -0.65 1c0.29,14.69 2.81,27.64 7.7,38.94 4.83,11.3 11.81,20.23 20.95,26.71 9.14,6.4 20.08,9.64 32.89,9.64 14.04,0 26.42,-1.94 37,-5.97 10.65,-4.03 19.79,-9.58 27.56,-16.56l16.2 26.99c-8.14,7.85 -18.93,14.54 -32.39,19.94 -13.39,5.4 -29.51,8.06 -48.37,8.13zm-59.67 -141.28l105.23 0 0 -5.55c0,-10.94 -1.94,-20.73 -5.83,-29.36 -3.81,-8.64 -9.57,-15.48 -17.27,-20.44 -7.63,-5.04 -17.28,-7.49 -28.79,-7.49 -9.29,0 -17.71,2.66 -25.27,8.06 -7.63,5.47 -13.89,12.81 -18.78,22.03 -4.9,9.28 -8.14,19.86 -9.72,31.67l0.43 1.08zm289.27 141.28c-21.09,-0.07 -39.44,-4.82 -55.06,-14.46 -15.55,-9.65 -27.64,-23.04 -36.13,-40.17 -8.49,-17.2 -12.74,-36.99 -12.74,-59.45l0 -9.28c0,-21.67 4.46,-41.03 13.39,-58.09 8.92,-17.13 20.8,-30.59 35.62,-40.52 14.83,-9.93 31.02,-14.9 48.59,-14.9 20.51,0 37.71,4.25 51.6,12.67 13.82,8.42 24.26,20.3 31.31,35.56 6.98,15.25 10.51,33.18 10.51,53.83l0 25.99 -147.98 0 -0.65 1c0.29,14.69 2.81,27.64 7.7,38.94 4.83,11.3 11.81,20.23 20.95,26.71 9.14,6.4 20.08,9.64 32.89,9.64 14.04,0 26.42,-1.94 37,-5.97 10.65,-4.03 19.79,-9.58 27.56,-16.56l16.2 26.99c-8.14,7.85 -18.93,14.54 -32.39,19.94 -13.39,5.4 -29.51,8.06 -48.37,8.13zm-59.67 -141.28l105.23 0 0 -5.55c0,-10.94 -1.94,-20.73 -5.83,-29.36 -3.81,-8.64 -9.57,-15.48 -17.27,-20.44 -7.63,-5.04 -17.28,-7.49 -28.79,-7.49 -9.29,0 -17.71,2.66 -25.27,8.06 -7.63,5.47 -13.89,12.81 -18.78,22.03 -4.9,9.28 -8.14,19.86 -9.72,31.67l0.43 1.08zm259.62 140.42c-16.84,0 -30.23,-4.97 -40.16,-14.9 -9.94,-9.86 -14.9,-25.77 -14.9,-47.5l0 -138.56 -36.06 0 0 -30.8 36.06 0 0 -55.06 41.53 0 0 55.06 49.59 0 0 30.8 -49.59 0 0 138.56c0,10.94 2.23,19 6.55,24.25 4.39,5.18 10.22,7.78 17.49,7.78 4.96,0 10.43,-0.44 16.48,-1.37 6.05,-0.94 10.72,-1.73 14.11,-2.45l5.68 27.21c-6.04,1.8 -13.46,3.45 -22.24,4.82 -8.78,1.44 -16.98,2.16 -24.54,2.16zm71.9 -3.6l0 -26.56 34.4 -5.9 0 -163.02 -34.4 -5.91 0 -26.77 75.93 0 0 195.7 34.4 5.9 0 26.56 -110.33 0zm32.31 -284.45l0 -44.48 43.69 0 0 44.48 -43.69 0zm106.67 284.45l0 -26.56 34.33 -5.9 0 -163.02 -34.33 -5.91 0 -26.77 71.47 0 2.95 33.97c7.56,-12.09 17.13,-21.52 28.57,-28.14 11.45,-6.69 24.48,-10.08 39.09,-10.08 24.61,0 43.69,7.27 57.15,21.67 13.53,14.39 20.29,36.63 20.29,66.72l0 111.56 34.33 5.9 0 26.56 -110.26 0 0 -26.56 34.4 -5.9 0 -110.7c0,-20.15 -4.03,-34.4 -11.95,-42.82 -7.91,-8.42 -20.08,-12.67 -36.34,-12.67 -11.95,0 -22.53,2.88 -31.74,8.64 -9.22,5.75 -16.56,13.67 -22.03,23.6l0 133.95 34.33 5.9 0 26.56 -110.26 0zm381.18 92.13c-10.94,0 -22.82,-1.51 -35.63,-4.54 -12.74,-3.02 -24.04,-7.12 -33.69,-12.3l10.73 -32.25c7.7,4.03 16.84,7.41 27.42,10.08 10.51,2.66 20.8,4.03 30.81,4.03 18.49,0 32.1,-5.18 40.73,-15.62 8.71,-10.36 13.03,-25.19 13.03,-44.48l0 -21.74c-7.48,9.58 -16.41,16.84 -26.77,21.74 -10.44,4.89 -22.39,7.34 -35.92,7.41 -18.5,-0.07 -34.55,-4.6 -48.01,-13.82 -13.53,-9.21 -23.89,-22.09 -31.16,-38.65 -7.2,-16.48 -10.8,-35.62 -10.8,-57.43l0 -4.39c0,-24.48 3.6,-45.92 10.8,-64.35 7.27,-18.43 17.63,-32.75 31.16,-42.9 13.46,-10.22 29.66,-15.33 48.44,-15.33 14.4,0 26.92,2.81 37.79,8.5 10.8,5.61 19.86,13.74 27.21,24.4l3.74 -28.65 35.05 0 0 225.21c0,19.65 -3.67,36.63 -11.08,50.81 -7.42,14.18 -18.14,25.12 -32.25,32.82 -14.18,7.63 -31.31,11.45 -51.6,11.45zm1.08 -121.42c12.52,0 22.96,-2.88 31.45,-8.57 8.42,-5.68 15.33,-13.75 20.87,-24.11l0 -105.01c-5.4,-9.72 -12.31,-17.42 -20.87,-23.11 -8.64,-5.68 -18.93,-8.56 -31.02,-8.56 -13.25,0 -24.19,3.81 -33.04,11.37 -8.78,7.63 -15.33,18.07 -19.72,31.31 -4.32,13.32 -6.48,28.65 -6.48,46.14l0 4.39c0,22.96 4.82,41.31 14.54,55.27 9.72,13.89 24.47,20.88 44.27,20.88zm87.52 -164.9l-16.27 -33.97 50.82 0 0 26.56 -34.55 7.41zm164.03 194.19l0 -26.56 34.4 -5.9 0 -241.91 -34.4 -5.9 0 -26.56 136.89 0c22.32,0 41.17,3.38 56.58,10.01 15.4,6.69 27.13,16.41 35.12,29 7.99,12.67 12.02,28.14 12.02,46.42 0,18 -3.89,33.11 -11.66,45.35 -7.84,12.23 -18.93,21.45 -33.25,27.71 -14.32,6.26 -31.31,9.57 -51.03,10l-68.74 1.3 0 104.58 34.41 5.9 0 26.56 -110.34 0zm202.68 0l-68.3 -153.31 41.52 -0.43 56.72 122.72 21.31 3.81 0 27.21 -51.25 0zm-126.75 -169.72l56.72 0c23.17,0 40.09,-4.46 50.6,-13.31 10.58,-8.86 15.83,-21.81 15.83,-38.8 0,-16.19 -5.04,-28.93 -15.19,-38.36 -10.14,-9.43 -25.76,-14.18 -47,-14.18l-60.96 0 0 104.65zm317.77 174.18c-21.09,-0.07 -39.23,-4.96 -54.49,-14.9 -15.26,-9.93 -26.99,-23.6 -35.34,-41.09 -8.28,-17.49 -12.38,-37.5 -12.38,-60.03l0 -4.61c0,-22.53 4.1,-42.53 12.38,-60.02 8.35,-17.49 20.08,-31.24 35.34,-41.25 15.26,-9.93 33.25,-14.97 54.13,-14.97 21.09,0 39.22,5.04 54.48,14.97 15.26,10.01 26.99,23.76 35.34,41.17 8.28,17.42 12.45,37.43 12.45,60.1l0 4.61c0,22.67 -4.17,42.68 -12.45,60.24 -8.35,17.49 -20.08,31.17 -35.27,40.96 -15.18,9.86 -33.25,14.75 -54.19,14.82zm0 -32.53c13.24,0 24.32,-3.6 33.25,-10.87 8.92,-7.2 15.69,-17.13 20.22,-29.72 4.61,-12.53 6.84,-26.85 6.84,-42.9l0 -4.61c0,-16.05 -2.23,-30.37 -6.84,-42.89 -4.53,-12.6 -11.37,-22.53 -20.36,-29.8 -9,-7.2 -20.16,-10.8 -33.47,-10.8 -13.25,0 -24.33,3.6 -33.33,10.8 -8.99,7.27 -15.76,17.2 -20.29,29.8 -4.47,12.52 -6.7,26.84 -6.7,42.89l0 4.61c0,16.05 2.23,30.37 6.7,42.9 4.53,12.59 11.3,22.52 20.36,29.72 9.07,7.27 20.3,10.87 33.62,10.87zm244.43 32.53c-21.09,-0.07 -39.23,-4.96 -54.49,-14.9 -15.26,-9.93 -26.99,-23.6 -35.34,-41.09 -8.28,-17.49 -12.38,-37.5 -12.38,-60.03l0 -4.61c0,-22.53 4.1,-42.53 12.38,-60.02 8.35,-17.49 20.08,-31.24 35.34,-41.25 15.26,-9.93 33.25,-14.97 54.13,-14.97 21.09,0 39.22,5.04 54.48,14.97 15.26,10.01 26.99,23.76 35.34,41.17 8.28,17.42 12.45,37.43 12.45,60.1l0 4.61c0,22.67 -4.17,42.68 -12.45,60.24 -8.35,17.49 -20.08,31.17 -35.27,40.96 -15.18,9.86 -33.25,14.75 -54.19,14.82zm0 -32.53c13.24,0 24.32,-3.6 33.25,-10.87 8.92,-7.2 15.69,-17.13 20.22,-29.72 4.61,-12.53 6.84,-26.85 6.84,-42.9l0 -4.61c0,-16.05 -2.23,-30.37 -6.84,-42.89 -4.53,-12.6 -11.37,-22.53 -20.36,-29.8 -9,-7.2 -20.16,-10.8 -33.47,-10.8 -13.25,0 -24.33,3.6 -33.33,10.8 -8.99,7.27 -15.76,17.2 -20.29,29.8 -4.47,12.52 -6.7,26.84 -6.7,42.89l0 4.61c0,16.05 2.23,30.37 6.7,42.9 4.53,12.59 11.3,22.52 20.36,29.72 9.07,7.27 20.3,10.87 33.62,10.87zm133.94 28.07l0 -26.56 34.33 -5.9 0 -163.02 -34.33 -5.91 0 -26.77 71.69 0 2.73 29.72c7.34,-10.79 16.7,-19.14 28.29,-25.11 11.51,-5.91 24.83,-8.86 40.02,-8.86 15.18,0 28.21,3.53 39.15,10.58 10.87,7.06 19.07,17.56 24.54,31.6 7.2,-12.88 16.63,-23.18 28.43,-30.73 11.88,-7.63 25.63,-11.45 41.39,-11.45 23.32,0 41.74,7.99 55.2,23.97 13.53,15.98 20.3,39.95 20.3,71.98l0 104 34.33 5.9 0 26.56 -110.48 0 0 -26.56 34.33 -5.9 0 -104.36c0,-22.53 -3.81,-38.44 -11.59,-47.8 -7.7,-9.35 -19.14,-14.03 -34.33,-14.03 -14.46,0 -26.12,5.11 -34.9,15.33 -8.79,10.15 -13.9,22.96 -15.26,38.43l0 112.43 34.33 5.9 0 26.56 -110.27 0 0 -26.56 34.33 -5.9 0 -104.36c0,-21.38 -3.95,-37.07 -11.87,-46.93 -7.92,-9.93 -19.43,-14.9 -34.48,-14.9 -12.66,0 -23.1,2.59 -31.23,7.84 -8.14,5.19 -14.4,12.46 -18.72,21.88l0 136.47 34.33 5.9 0 26.56 -110.26 0zm-1096.1 587.32c-18.72,-0.07 -35.34,-3.45 -50.03,-10.29 -14.61,-6.77 -25.98,-16.48 -34.26,-29.08 -8.2,-12.59 -12.09,-27.49 -11.66,-44.77l0.65 -1.29 39.59 0c0,10.79 2.3,20.15 6.76,28.07 4.54,7.84 10.87,13.96 19.22,18.35 8.28,4.32 18.21,6.48 29.73,6.48 17.56,0 31.31,-4.75 41.31,-14.32 10.01,-9.58 14.97,-23.68 14.97,-42.4 0,-18.93 -4.46,-32.96 -13.31,-41.96 -8.86,-8.99 -22.82,-13.46 -41.97,-13.46l-36.2 0 0 -32.46 36.2 0c12.24,0 22.1,-2.09 29.59,-6.26 7.41,-4.17 12.81,-10.15 16.12,-17.92 3.31,-7.77 4.97,-17.2 4.97,-28.14 0,-17.57 -4.4,-30.95 -13.1,-40.09 -8.71,-9.14 -21.6,-13.68 -38.58,-13.68 -10.87,0 -20.3,2.16 -28.29,6.41 -7.99,4.32 -14.25,10.36 -18.64,18.13 -4.46,7.85 -6.62,16.99 -6.62,27.57l-39.88 0 -0.43 -1.29c-0.43,-15.48 3.24,-29.51 11.09,-42.18 7.77,-12.67 18.85,-22.67 33.1,-30.16 14.26,-7.41 30.81,-11.16 49.67,-11.16 28.36,0 51.03,7.56 67.87,22.68 16.84,15.11 25.33,36.63 25.33,64.63 0,12.67 -3.88,25.26 -11.51,37.86 -7.63,12.52 -19.15,22.17 -34.48,28.72 18.43,6.04 31.46,15.54 39.09,28.5 7.7,12.95 11.51,27.42 11.51,43.4 0,18.71 -4.17,34.76 -12.52,48.22 -8.35,13.39 -19.94,23.75 -34.69,31.02 -14.76,7.2 -31.67,10.8 -50.6,10.87z"/>
 </g>
</svg>
